<svg xmlns="http://www.w3.org/2000/svg" viewBox="0 0 66.81 144.03"><defs><style>.cls-1{fill:#fff;}</style></defs><title>corona_blanca</title><g id="Capa_2" data-name="Capa 2"><g id="OBJECTS"><path class="cls-1" d="M26.39,46.53a3.65,3.65,0,0,0,.77-.54,43.66,43.66,0,0,1,8.94-8l8.24-5.66a10.51,10.51,0,0,1,1.36-.83,1.12,1.12,0,0,1,1.65.87,4.94,4.94,0,0,1-.06,1.38,24.6,24.6,0,0,1-1.85,6.51c-.74,1.64-1.53,3.26-2.33,4.87a21.62,21.62,0,0,1-9.42,9.5A54.1,54.1,0,0,1,28.61,57a36.71,36.71,0,0,0-5.19,2.55,3.38,3.38,0,0,0-1.7,2.77c-.3,3-.72,6.09-.87,9.14A68,68,0,0,0,22,87.37c.11.58.26,1.15.4,1.73.49,0,.34-.37.4-.56a3.94,3.94,0,0,0,.08-.6,57.78,57.78,0,0,1,2.4-9.68c.6-1.76,1.21-3.53,1.82-5.29a2.63,2.63,0,0,0,.07-2.29,2.62,2.62,0,0,1,0-2.14,3,3,0,0,1,2.91-2,2.26,2.26,0,0,1,2.3,1.83,4.4,4.4,0,0,1-.89,3.57,2.49,2.49,0,0,1-1.14.74,7.18,7.18,0,0,1-1.45.24c-.17.45-.38.94-.53,1.44-1.11,3.56-2.28,7.1-3.29,10.69a29.78,29.78,0,0,0-1,8.31A14.66,14.66,0,0,0,25,98.6a32.41,32.41,0,0,0,1.9,4.57c.48-.23.32-.61.3-.88a28.89,28.89,0,0,1,1.85-12c1-2.94,2.17-5.87,3.26-8.8,1-2.63,1.94-5.25,2.9-7.88l.26-.75c.2-.59.43-1.15,1.18-1.17.53,0,.86.35,1,1.25.26,1.24.51,2.48.68,3.73.5,3.63,1,7.27,1.43,10.9a32.67,32.67,0,0,1-.29,9.57,25.08,25.08,0,0,1-4.44,10.38,37.61,37.61,0,0,0-3.1,5.09c2,5.1,12.28,16.38,18.41,20.25.24-.48-.19-.71-.39-1a28.66,28.66,0,0,1-4.42-8.69,27,27,0,0,1-1.18-7.88,4.25,4.25,0,0,0-.73-3.2,2.12,2.12,0,0,1-.19-2.11,2.45,2.45,0,0,1,4-1,2.75,2.75,0,0,1,0,4.07,10.05,10.05,0,0,1-1.1.78A26.66,26.66,0,0,0,48.69,126a34,34,0,0,0,9,11.38,27.68,27.68,0,0,0,6.5,3.84c.84.4,1.69.77,2.66,1.2-.16.53-.3,1-.46,1.57a24,24,0,0,1-3.95-1.65c-2.29-1.08-4.57-2.16-6.82-3.33A8.37,8.37,0,0,0,50,138.3a75.41,75.41,0,0,1-8.32,1.07A27,27,0,0,1,23,133.64a32.91,32.91,0,0,1-6-5.87,9.23,9.23,0,0,1-1.23-2,1.36,1.36,0,0,1,1.31-1.94,5.9,5.9,0,0,1,1.38.2c2.65.65,5.29,1.34,8,2a31.1,31.1,0,0,0,7.51,1,22.17,22.17,0,0,1,6.33.74,5.55,5.55,0,0,0,.94.07,5.65,5.65,0,0,0-.45-.76c-.44-.49-1-.94-1.36-1.46a8.61,8.61,0,0,0-5.46-3c-1.5-.29-3-.63-4.46-1.06a29.57,29.57,0,0,1-9-4.59L19,115.75c-.56.07-1.08.18-1.6.2a2.41,2.41,0,0,1-2.52-2.1,2.73,2.73,0,0,1,2.2-2.9,2.76,2.76,0,0,1,3.22,2.51,6.13,6.13,0,0,1-.08,1.07,31.69,31.69,0,0,0,15,6.47,8.1,8.1,0,0,0-.52-1,74.93,74.93,0,0,1-9.48-16.17,33,33,0,0,0-8-11.08c-2.92-2.74-6.1-5.15-9.34-7.68-.54.16-1.09.36-1.67.48A2.87,2.87,0,0,1,2.85,84a3.25,3.25,0,0,1,1.26-3.86,2,2,0,0,1,1.73-.24c1.45.53,2.62,1.33,2.72,3.07,0,.2,0,.4.07.68,2.26,1.77,4.64,3.49,6.85,5.4s4.23,4,6.46,6.15a6,6,0,0,0-.09-.91A73.19,73.19,0,0,1,19.7,83.5a5.18,5.18,0,0,0-2.62-4,30.28,30.28,0,0,1-7.92-7A38.79,38.79,0,0,1,1.21,55.06C.47,51.32.42,47.51,0,43.74a2,2,0,0,1,.09-1,.91.91,0,0,1,.58-.47.93.93,0,0,1,.71.23,2.56,2.56,0,0,1,.51.84A15.17,15.17,0,0,0,5,47.75c1,1,2,2,2.91,3A50.2,50.2,0,0,1,15.3,60.94a24.62,24.62,0,0,1,3.14,10.23,10.73,10.73,0,0,0,.65,2.91c0-.78,0-1.55.1-2.32.21-2.59.45-5.17.66-7.76a16.36,16.36,0,0,0,0-2c0-.33-.11-.66-.1-1a21.19,21.19,0,0,0-1.18-6.46c-.46-1.54-.9-3.07-1.42-4.59A41.61,41.61,0,0,1,15,38c0-.52-.09-1.05-.13-1.54a12.12,12.12,0,0,1-1.21-1.12c-1.73-2.09.11-4.54,1.81-4.82a2.58,2.58,0,0,1,3,1.78,3.24,3.24,0,0,1-.72,3.34,12.64,12.64,0,0,1-1,.91,34.56,34.56,0,0,0,1.36,11.1c.85,2.87,1.73,5.74,2.61,8.6A6.34,6.34,0,0,0,21,57c.21-.61.41-1,.52-1.52A75.89,75.89,0,0,1,27,40.71a8.13,8.13,0,0,0,.68-5.81c-.52-2-1-4-1.45-6a44.24,44.24,0,0,1-.64-4.74,19.21,19.21,0,0,1,1.48-9.39c1.39-3.24,3-6.41,4.46-9.6a3.65,3.65,0,0,1,.4-.69,1.08,1.08,0,0,1,1.94.1,4.37,4.37,0,0,1,.43.9c.66,1.82,1.37,3.62,1.93,5.47a16.63,16.63,0,0,1,.59,8.87,23.41,23.41,0,0,1-1.14,3.4c-.92,2.21-1.92,4.39-2.88,6.59-.13.29-.21.61-.32.94.38.23.48-.13.59-.28a99,99,0,0,0,5.68-8.21A34,34,0,0,0,43.13,9.47c.18-1.31.29-2.64.43-4L42.1,4.09a1.65,1.65,0,0,1-.51-1.26A3.11,3.11,0,0,1,44.65,0a2.19,2.19,0,0,1,2,1.46A2.86,2.86,0,0,1,46.1,4.8c-.24.23-.5.44-.67.59-.38,2.46-.63,4.85-1.16,7.18s-1.34,4.55-2.1,7.08c1.73-1.51,3.24-2.89,4.82-4.2s3.25-2.54,5-3.89c0-.36,0-.82.06-1.27A2.51,2.51,0,0,1,55.26,8a5.8,5.8,0,0,1,1.14.36,2.59,2.59,0,0,1,.88,4.17,3,3,0,0,1-3.59.8c-.24-.11-.47-.24-.75-.38-.56.39-1.11.75-1.65,1.14A75.39,75.39,0,0,0,39,25.44c-.79.91-1.5,1.88-2.22,2.84C35.52,30,34.22,31.68,33,33.45a49.47,49.47,0,0,0-2.92,4.77c-1.22,2.29-2.31,4.65-3.42,7a5.74,5.74,0,0,0-.28,1.32l-.3.3.12.13ZM31,11.2c-.17,0-.44,0-.49.13-.42.84-.8,1.69-1.17,2.54A22.54,22.54,0,0,0,27.66,27a1.85,1.85,0,0,0,.66,1.45A124.79,124.79,0,0,1,31,11.18C30.92,11.12,31,11.21,31,11.2Zm3.47,70.58a2.55,2.55,0,0,0-.47.58,111.82,111.82,0,0,0-4,11.09,27.22,27.22,0,0,0-.7,12.07,6,6,0,0,0,.54,2c.59-.2.49-.65.54-1,.26-1.71.44-3.44.75-5.14,1-5.57,2.07-11.13,3.1-16.7a7,7,0,0,0,.18-3l.15-.27ZM20,126.54a13.32,13.32,0,0,0,1,.87,31.39,31.39,0,0,0,8.93,4.36,53.89,53.89,0,0,0,8.63,1.57c3.62.49,7.29.73,10.8,1.87a1.81,1.81,0,0,0,.59,0,2.69,2.69,0,0,0-.4-.52c-1.54-1.05-3-2.17-4.64-3.11a19,19,0,0,0-9.9-2.68,31,31,0,0,1-5.37-.29c-2.81-.48-5.58-1.21-8.37-1.83C21,126.68,20.64,126.65,20,126.54ZM31.6,108.12l.41.1a28.75,28.75,0,0,0,4-6.55,26.39,26.39,0,0,0,1.89-9.52A65.41,65.41,0,0,0,37,81.24a9.75,9.75,0,0,0-.45-1.31c-.3,1.87-.52,3.38-.8,4.88-1,5.48-2.13,11-3.14,16.43C32.18,103.52,31.93,105.83,31.6,108.12ZM44.62,37a3.34,3.34,0,0,0-.53.38c-3.63,4.64-8,8.55-12.35,12.5-1.63,1.47-3.17,3-4.74,4.59-.46.46-.86,1-1.33,1.52.25.07.4.16.5.13A34.39,34.39,0,0,0,36,51.25,16.32,16.32,0,0,0,40.78,46c1.11-2.12,2.14-4.29,3.14-6.47A5.69,5.69,0,0,0,44.62,37Zm-28,40c-.22-.6-.28-.85-.39-1.08a92.2,92.2,0,0,0-5.42-10A83.44,83.44,0,0,1,2.89,51.46c-.06-.14-.23-.24-.39-.42C2.67,58.66,7.69,71.15,16.58,77ZM29.63,32.25l.39,0c.44-1.17.85-2.37,1.34-3.52.92-2.14,1.89-4.27,2.84-6.39a12.53,12.53,0,0,0,1.18-5,19.22,19.22,0,0,0-1.75-8.54c-.11-.24-.21-.49-.69-.33C31.32,16.29,29.69,24.16,29.63,32.25Zm-13,40.55a4,4,0,0,0,.17-.68,7,7,0,0,0,0-.79,22.54,22.54,0,0,0-2.61-8.74A48.49,48.49,0,0,0,4.82,50c-.2-.19-.37-.54-.85-.29.21.57.4,1.13.61,1.68a78.91,78.91,0,0,0,6.41,12c1.74,2.84,3.39,5.73,5.08,8.59C16.2,72.13,16.36,72.33,16.67,72.8Zm7.39-17.54c1.41-1.4,2.78-2.84,4.23-4.2,2.67-2.51,5.38-5,8.08-7.45a53.74,53.74,0,0,0,6.15-6.82c.2-.27.62-.51.31-1a6.3,6.3,0,0,0-.69.37c-2.69,1.86-5.39,3.68-8,5.6a30.63,30.63,0,0,0-7.42,7.77A15.72,15.72,0,0,0,24.06,55.26Zm-.82,75.52a22.5,22.5,0,0,0,8,4.95,29.45,29.45,0,0,0,15.51,1.09,5.13,5.13,0,0,0,1.07-.51c-1.18-.24-2-.45-2.86-.56-2.83-.4-5.65-.82-8.49-1.11A35.86,35.86,0,0,1,24.12,131C23.87,130.9,23.61,130.59,23.24,130.78Z"/></g></g></svg>