<svg xmlns="http://www.w3.org/2000/svg" viewBox="0 0 66.79 143.42"><defs><style>.cls-1{fill:#fcfcfc;}</style></defs><title>corona_blanca_end</title><g id="Capa_2" data-name="Capa 2"><g id="OBJECTS"><path class="cls-1" d="M34,30.18a2.27,2.27,0,0,0-.31-1.72C33,26.74,32.28,25,31.52,23.31a15.81,15.81,0,0,1-.43-11.5c.65-2.1,1.5-4.14,2.29-6.18.24-.61.43-1.37,1.21-1.46s1.24.65,1.56,1.3a66.9,66.9,0,0,1,5,12.18,19.57,19.57,0,0,1,.52,6.94,45.27,45.27,0,0,1-1.89,9c-.21.7-.38,1.41-.56,2.12a6.84,6.84,0,0,0,.62,4.83,70,70,0,0,1,5.14,14,4.7,4.7,0,0,0,.73,2c.28-.6.49-1,.63-1.39.87-2.66,1.74-5.31,2.57-8A27.49,27.49,0,0,0,50.15,40c0-.86.12-1.72.19-2.7-.29-.25-.65-.53-1-.85a3.21,3.21,0,0,1-.6-3.86,2.51,2.51,0,0,1,3.73-1,2.93,2.93,0,0,1,.57,4.76,11.9,11.9,0,0,1-1,.83c-.07.66-.2,1.38-.23,2.11a43.48,43.48,0,0,1-2.5,11.87c-.84,2.46-1.59,5-2.31,7.44a13.51,13.51,0,0,0-.3,5.34c.27,2.32.37,4.65.53,7a4,4,0,0,0,.27,1.36c.13-.71.3-1.4.4-2.11a25.37,25.37,0,0,1,4.18-10.28,46,46,0,0,1,4.94-6.52c1.23-1.31,2.5-2.58,3.77-3.86a17.35,17.35,0,0,0,4.09-5.37,3,3,0,0,1,.19-.35.92.92,0,0,1,1-.46.85.85,0,0,1,.67.88,2.33,2.33,0,0,1,0,.59c-.38,3.25-.68,6.5-1.17,9.73a37.63,37.63,0,0,1-3,9.71,37.46,37.46,0,0,1-3.37,6.11,35.18,35.18,0,0,1-7,7.41c-.83.66-1.74,1.23-2.62,1.83a9.13,9.13,0,0,1-.84.53,4.59,4.59,0,0,0-2.37,3.68c-.36,2.63-1,5.23-1.52,7.84-.23,1.09-.55,2.16-.91,3.59,2.33-2.1,4.32-4,6.46-5.79s4.37-3.27,6.66-5a3.9,3.9,0,0,0,.11-.66c.07-1.77,1.3-2.53,2.72-3.06a2.2,2.2,0,0,1,2.08.41A3.31,3.31,0,0,1,63,85a2.75,2.75,0,0,1-3.2,1.42c-.51-.11-1-.31-1.62-.5a19.41,19.41,0,0,0-3.2,2.2A66,66,0,0,0,46.67,95a23.16,23.16,0,0,0-5.42,7.58,71.32,71.32,0,0,1-9.57,16.57c-.36.47-.69,1-1,1.46,0,0,0,.13,0,.2,3.05.41,9.78-2.5,14.24-5.78a8,8,0,0,1,0-1.29,2.72,2.72,0,0,1,5.39.36,2.29,2.29,0,0,1-2.17,2.41,12.65,12.65,0,0,1-1.94-.21,9.28,9.28,0,0,0-1,.64,30.11,30.11,0,0,1-10.36,5,45.94,45.94,0,0,1-4.7.93,4.61,4.61,0,0,0-3,1.74c-.57.73-1.28,1.36-1.91,2.05a7.77,7.77,0,0,0-.56.78c.16.08.22.14.26.13a72.46,72.46,0,0,1,9-.6,48.58,48.58,0,0,0,6.3-1c1.76-.35,3.49-.88,5.24-1.25a13.6,13.6,0,0,1,2.77-.25,1.1,1.1,0,0,1,1.07,1.38A3.64,3.64,0,0,1,48.8,127a8.93,8.93,0,0,1-1,1.49,32.67,32.67,0,0,1-12.8,9.3,29.44,29.44,0,0,1-6.19,1.5c-4.37.66-8.62-.14-12.88-.87-.07,0-.13-.05-.2-.06a31.72,31.72,0,0,0-3.74-.52c-1.34,0-2.27,1-3.37,1.63a76,76,0,0,1-8,4L0,141.91c.41-.24.73-.46,1.07-.63,1.14-.56,2.28-1.1,3.41-1.67a1.44,1.44,0,0,0,.88-1,2.29,2.29,0,0,1,.86-1,33.79,33.79,0,0,0,8-8.31,24,24,0,0,0,4.29-11.88c.08-1.18.21-2.37.31-3.56l-.9-.62a2.45,2.45,0,0,1-1-2.81,2.66,2.66,0,0,1,2.13-2.15,2.2,2.2,0,0,1,2.4,1.06,2.2,2.2,0,0,1,.11,2.79,4.22,4.22,0,0,0-.76,2.8A28.27,28.27,0,0,1,17,128.43c-.63,1.1-1.44,2.09-2.15,3.13-.17.25-.29.53-.66,1.19l1-.53a40.13,40.13,0,0,0,10-8.26,74.11,74.11,0,0,0,7.14-8.87c.38-.55.72-1.11,1.08-1.68A24.57,24.57,0,0,0,31,108.8a34.41,34.41,0,0,1-3.52-6.48,27.61,27.61,0,0,1-1.66-12.17,124.52,124.52,0,0,1,2-13.83c.19-1,.35-2.1.59-3.14s.68-1.45,1.2-1.37c.73.12.87.71,1.08,1.29,1.78,5.16,3.62,10.3,5.37,15.47a45.14,45.14,0,0,1,2.07,7.91,24.3,24.3,0,0,1,.06,7,7.54,7.54,0,0,0,0,1.08c.23-.21.43-.32.5-.47a46.19,46.19,0,0,0,2.22-5.55A25.64,25.64,0,0,0,41.59,93a27.11,27.11,0,0,0-.89-7.92c-1-3.8-2.18-7.54-3.29-11.31a5.31,5.31,0,0,0-.29-.61c-.35,0-.74-.08-1.13-.14a1.56,1.56,0,0,1-.57-.16c-1.52-.74-2.22-3.77-1.2-5.1a2.8,2.8,0,0,1,4.45.38A3.2,3.2,0,0,1,39,71a3.42,3.42,0,0,0,0,2.7c.48,1.38.87,2.79,1.35,4.18A51.15,51.15,0,0,1,43,90.14c.41.14.49-.12.55-.37a72.87,72.87,0,0,0,1.84-19.64c-.11-2.33-.4-4.65-.57-7a3.94,3.94,0,0,0-1.55-2.89,21.94,21.94,0,0,0-5.8-3.06,31,31,0,0,1-8.4-4.94,18.92,18.92,0,0,1-5-6.19c-.8-1.68-1.61-3.36-2.4-5a29.46,29.46,0,0,1-1.93-6.5,8,8,0,0,1-.09-2.18,1.12,1.12,0,0,1,1.63-.9,4.92,4.92,0,0,1,.83.54c3.72,2.71,7.48,5.34,11.13,8.14a31.84,31.84,0,0,1,6.44,6.52,9.34,9.34,0,0,0,.63.78,1,1,0,0,0,.32.16c-.3-2.26-3.6-9.24-6.35-13.44C28.34,25,20.47,16.75,14,12.83c-.22.12-.5.28-.78.41a2.58,2.58,0,0,1-3.09-.7A2.6,2.6,0,0,1,9.4,9.61,2.83,2.83,0,0,1,12,7.74a2.31,2.31,0,0,1,2.43,1.68,15.44,15.44,0,0,1,.28,1.68,81,81,0,0,1,10.53,8.78c-.18-.74-.23-1.09-.35-1.42A37.66,37.66,0,0,1,22.49,6.78a2.6,2.6,0,0,0-.92-2.09c-1-.86-.9-2-.52-3.14A2.19,2.19,0,0,1,23.55,0,3.15,3.15,0,0,1,26.08,2.3,1.83,1.83,0,0,1,25.66,4L24.13,5.8a22.57,22.57,0,0,0,.29,3.32,33.73,33.73,0,0,0,4.73,14.29c1.34,2.24,2.94,4.28,4.44,6.39a1.8,1.8,0,0,0,.47.33l.12.35.15-.21Zm7.25,101.16a10.93,10.93,0,0,0-1.3.41A33.91,33.91,0,0,1,29,134.66c-3.18.31-6.36.68-9.54,1a13.24,13.24,0,0,0-1.38.23c-.37.09-.73.24-1.1.37a30.09,30.09,0,0,0,5.54,1A26.36,26.36,0,0,0,29.1,137a26.18,26.18,0,0,0,11.62-5,2.87,2.87,0,0,0,.51-.77h.34l-.13-.23Zm3.38-4.06L44.5,127c-1.42.32-2.83.69-4.26,1-2.08.38-4.18.74-6.28,1a20.86,20.86,0,0,1-3.79,0,21.07,21.07,0,0,0-5,.44c-3.45.61-6.19,2.48-8.75,5a3.28,3.28,0,0,0,.69.12c2.7-.33,5.4-.65,8.09-1s5.28-.63,7.89-1.11A29.93,29.93,0,0,0,43.9,127.9,6.23,6.23,0,0,0,44.64,127.28ZM29.43,80.64h-.26a10.15,10.15,0,0,0-.35,1.28c-.4,2.63-.78,5.26-1,7.92A28.16,28.16,0,0,0,29.48,102a32,32,0,0,0,3.69,6.36c0,.07.24.05.45.08,0-.67,0-1.34-.1-2C33,101.58,32.05,96.82,31.24,92,30.6,88.24,30,84.44,29.43,80.64ZM22.49,36.93A3.72,3.72,0,0,0,23,39.55c1,2.19,2,4.34,3,6.52a10.34,10.34,0,0,0,1.93,2.78,20.71,20.71,0,0,0,5.92,4.68c2,1,4.09,1.93,6.14,2.88a3.13,3.13,0,0,0,.91.05c-.62-.74-1-1.34-1.55-1.86-2-2-3.94-4-5.94-5.93a94.41,94.41,0,0,1-8.07-8.3c-.46-.57-1-1.1-1.43-1.67S23,37.58,22.49,36.93ZM49.85,77.5A35.09,35.09,0,0,0,60.73,64.22c1.71-3.53,3.4-9.34,3.23-12.16a4.09,4.09,0,0,0-.72,1.26,57.05,57.05,0,0,1-3.69,7.06C57,64.65,54,68.64,51.64,73.07c-.65,1.24-1.26,2.49-1.88,3.74C49.71,76.9,49.78,77.05,49.85,77.5ZM37,32.37c.65-7.24-.73-14.22-1.86-21.24a5.75,5.75,0,0,0-.71-2.66c-.15.1-.28.15-.33.25A20,20,0,0,0,32,17a13.48,13.48,0,0,0,1.06,5.64c1.22,2.95,2.37,5.93,3.55,8.89Zm25.84,18c-.29.05-.43,0-.5.09-1.1,1.06-2.26,2.07-3.29,3.19a49.3,49.3,0,0,0-7,9.91,22.83,22.83,0,0,0-2.69,8.9c0,.2-.2.54.34.63.19-.29.43-.59.63-.92,1.46-2.38,2.82-4.83,4.38-7.14,2.17-3.2,4.19-6.49,6-9.88C61.5,53.64,62.06,52,62.81,50.37ZM23.74,35.74a49.65,49.65,0,0,0,7.32,8.68c2,1.94,4.08,3.8,6.06,5.76,1.69,1.69,3.3,3.46,4.94,5.2.17.17.3.48.61.19a1.67,1.67,0,0,0-.05-.39,30.36,30.36,0,0,0-6.21-9.88c-3.52-3.78-7.9-6.46-12-9.47C24.29,35.77,24.14,35.79,23.74,35.74ZM31.5,81.82c.53,7.28,2.2,14.35,3.08,21.52.18,1.46.39,2.9.58,4.35a.26.26,0,0,0,.12.15s.1,0,.28,0a11.59,11.59,0,0,0,.44-1.45,32.23,32.23,0,0,0,.45-3.36,26.62,26.62,0,0,0-.16-6.37A78.59,78.59,0,0,0,32,82.8,8.5,8.5,0,0,0,31.5,81.82Zm7.55-53.07a21.42,21.42,0,0,0,.49-10A37.3,37.3,0,0,0,37,11.4c0-.1-.21-.15-.51-.34.53,3.13,1.07,6,1.5,8.9S38.52,25.84,39.05,28.75Z"/></g></g></svg>