<svg xmlns="http://www.w3.org/2000/svg" viewBox="0 0 342.51 550.96"><defs><style>.cls-1{fill:#76bbb6;}</style></defs><title>cupon-corto</title><g id="Capa_2" data-name="Capa 2"><g id="Capa_1-2" data-name="Capa 1"><path class="cls-1" d="M324.31,551c0-10.12,8.15-20,18.2-20V512.63a18.33,18.33,0,0,1,0-36.66V457.64a18.34,18.34,0,0,1,0-36.67V402.64a18.33,18.33,0,0,1,0-36.66V347.65a18.34,18.34,0,0,1,0-36.67V292.65a18.33,18.33,0,0,1,0-36.66V237.65a18.33,18.33,0,0,1,0-36.66V182.66a18.34,18.34,0,0,1,0-36.67V127.66a18.33,18.33,0,0,1,0-36.66V72.66a18.33,18.33,0,0,1,0-36.66V17.67c-10.05,0-18.2-7.55-18.2-17.67L55.87.29,18.2,0c0,10.12-8.15,18.67-18.2,18.67V37A18.27,18.27,0,0,1,18.2,55.33,18.26,18.26,0,0,1,0,73.66V92a18.26,18.26,0,0,1,18.2,18.33A18.27,18.27,0,0,1,0,128.66V147a18.27,18.27,0,0,1,18.2,18.33A18.27,18.27,0,0,1,0,183.66V202a18.27,18.27,0,0,1,18.2,18.33A18.26,18.26,0,0,1,0,238.65V257a18.26,18.26,0,0,1,18.2,18.33A18.27,18.27,0,0,1,0,293.65V312a18.27,18.27,0,0,1,18.2,18.33A18.27,18.27,0,0,1,0,348.65V367a18.27,18.27,0,0,1,18.2,18.33A18.27,18.27,0,0,1,0,403.64V422a18.27,18.27,0,0,1,18.2,18.34A18.27,18.27,0,0,1,0,458.64V477A18.27,18.27,0,0,1,18.2,495.3,18.26,18.26,0,0,1,0,513.63V532c10.05,0,18.2,8.87,18.2,19Z"/></g></g></svg>