<svg xmlns="http://www.w3.org/2000/svg" viewBox="0 0 100.47 39.91"><defs><style>.cls-1{fill:#fd9500;}</style></defs><title>decoracion_linea_1</title><g id="Capa_2" data-name="Capa 2"><g id="OBJECTS"><path class="cls-1" d="M33.29,19.44c-.86-.16-1.28-.28-1.7-.31A75.7,75.7,0,0,0,15,19.46c-2,.29-4.11.39-6.18.5a14.6,14.6,0,0,1-5.12-.68A6.35,6.35,0,0,1,.87,17.54a2.45,2.45,0,0,1,.84-4.22,8.81,8.81,0,0,1,4.89-.66,37.67,37.67,0,0,1,5.85,1.28c2.8.83,5.63,1.61,8.46,2.35a9.15,9.15,0,0,0,3.76.29,9,9,0,0,1,2,.11c2.25.15,4.51.31,6.81.29a13.82,13.82,0,0,0-1.4-.52,32.34,32.34,0,0,1-8.18-3.67,14.09,14.09,0,0,1-4.55-4.14A12.48,12.48,0,0,1,18,6a3.73,3.73,0,0,1-.13-1.76A2.3,2.3,0,0,1,20.47,2a7.69,7.69,0,0,1,2,.35,11.62,11.62,0,0,1,4.63,2.69C28,6,28.91,7,29.84,7.93c1.43,1.48,2.83,3,4.31,4.45a25.84,25.84,0,0,0,6.91,4.7,5.74,5.74,0,0,0,1.88.64c4,.31,8.1.55,12.44.83a2.5,2.5,0,0,0-1.47-.84,52.49,52.49,0,0,1-9.42-3.85,22.57,22.57,0,0,1-6-4.27,13.1,13.1,0,0,1-2.7-3.7A9.35,9.35,0,0,1,35,3.44,2.87,2.87,0,0,1,37.63.07a7.36,7.36,0,0,1,3.16.26,11.24,11.24,0,0,1,3.88,2c1.55,1.26,3.09,2.54,4.56,3.89,1.71,1.58,3.32,3.28,5,4.89,1.39,1.33,2.82,2.64,4.26,3.92a22.35,22.35,0,0,0,6.16,3.67,6.1,6.1,0,0,0,1.93.45c3.92.24,7.85.42,11.78.62a2,2,0,0,0,.54-.11c.07-.41-.25-.46-.47-.55-1.4-.61-2.82-1.19-4.23-1.79A29.61,29.61,0,0,1,63.45,9.56,17.7,17.7,0,0,1,61.59,7a5.29,5.29,0,0,1-.72-3.46A2.86,2.86,0,0,1,63.94.75a5.72,5.72,0,0,1,2.13.45,21,21,0,0,1,3.29,1.87A29,29,0,0,1,75.18,8.8c1.75,2.18,3.51,4.36,5.33,6.48a14.57,14.57,0,0,0,5.75,4.21,14.34,14.34,0,0,0,4.62,1.11c2.66.11,5.32.37,8,.59a3.2,3.2,0,0,1,1.17.22,1,1,0,0,1,.45.76.93.93,0,0,1-.6.65,4.23,4.23,0,0,1-1.38.08c-1.93-.08-3.87-.11-5.79-.31a9.68,9.68,0,0,0-4.82.87,46,46,0,0,0-13.81,9.38c-1.51,1.4-3,2.86-4.51,4.24a18.76,18.76,0,0,1-2.84,2.2,3.29,3.29,0,0,1-5.09-1.64A4.92,4.92,0,0,1,61.8,33a10.64,10.64,0,0,1,3.1-3.34,37.05,37.05,0,0,1,9-4.79c2-.75,4-1.34,6.07-2,.55-.18,1.12-.34,2.15-.65A13.19,13.19,0,0,0,80.77,22c-4.86-.31-9.71-.63-14.57-.89a6.92,6.92,0,0,0-2.15.32A28.26,28.26,0,0,0,52.52,28c-2.07,1.88-4,3.9-6.07,5.79a37.88,37.88,0,0,1-3.57,2.89,6,6,0,0,1-4,1.09c-2.13-.16-3.28-1.58-2.82-3.68a7.82,7.82,0,0,1,1-2.36A20.73,20.73,0,0,1,42.63,26,32.85,32.85,0,0,1,52,21.1c.35-.11.69-.27,1.41-.56a10.78,10.78,0,0,0-1.29-.32c-2.4-.15-4.79-.31-7.19-.42a4.18,4.18,0,0,0-1.35.21,40.88,40.88,0,0,0-15.76,8.77c-1.24,1.11-2.54,2.15-3.85,3.18a11.92,11.92,0,0,1-2,1.29,3.4,3.4,0,0,1-4.23-.51c-1.13-1.12-1.26-2.54-.4-4.23a8.32,8.32,0,0,1,2.47-2.84,35.87,35.87,0,0,1,10.1-5.16C30.85,20.18,31.86,19.88,33.29,19.44Zm24.17-2.8a1.11,1.11,0,0,0-.19-.34c-2.92-2.81-5.82-5.63-8.79-8.39-1.55-1.45-3.19-2.81-4.83-4.15A8.57,8.57,0,0,0,39.94,1.9a6.88,6.88,0,0,0-2-.15,1.29,1.29,0,0,0-1.2,1.68A7.67,7.67,0,0,0,38.09,6.3a18.1,18.1,0,0,0,6.1,5.34,54.52,54.52,0,0,0,12.93,5.08C57.22,16.75,57.35,16.67,57.46,16.64Zm22.82,1.14c-1.12-1.28-2-2.2-2.78-3.18-1.43-1.76-2.82-3.55-4.24-5.31a24.08,24.08,0,0,0-5.86-5.4,11.26,11.26,0,0,0-2.89-1.31,1.37,1.37,0,0,0-1.83,1.63,6,6,0,0,0,.7,2.06,12.92,12.92,0,0,0,1.55,2.08C68.92,13,74.13,15.68,80.28,17.78ZM58.72,21.6l-.17-.24a4.13,4.13,0,0,0-.93,0c-1.61.39-3.25.72-4.82,1.25a29.46,29.46,0,0,0-11.7,7,25.66,25.66,0,0,0-2.73,3.41,4.21,4.21,0,0,0-.61,1.66A1,1,0,0,0,38.7,36a4.19,4.19,0,0,0,1.94-.2,11.06,11.06,0,0,0,2.73-1.62c1.41-1.2,2.74-2.51,4.05-3.83,3.25-3.27,6.58-6.41,10.78-8.47Zm23.21,2.69c-.2,0-.35-.11-.46-.07-2.52.83-5.07,1.59-7.55,2.54a34.39,34.39,0,0,0-7.71,4.16,9.86,9.86,0,0,0-2.77,2.84A3.08,3.08,0,0,0,63.37,37c.6,1.11,1.43,1.39,2.46.68a19.87,19.87,0,0,0,2.6-2.16,89.68,89.68,0,0,1,12.9-10.68A4.79,4.79,0,0,0,81.93,24.29ZM34.49,15.2c-.39-.47-.57-.72-.78-.93L28.16,8.58c-.79-.81-1.57-1.63-2.4-2.38a10.54,10.54,0,0,0-4.17-2.26c-.56-.16-1.18-.46-1.65.1a1.64,1.64,0,0,0-.08,1.71,5.1,5.1,0,0,0,.75,1.4,15.49,15.49,0,0,0,2,2.23A26.79,26.79,0,0,0,34.49,15.2Zm1.72,5.54a1.39,1.39,0,0,0-.45-.09,39.37,39.37,0,0,0-11,3.87,45,45,0,0,0-4.17,2.71,5.18,5.18,0,0,0-1.9,2.52,1.47,1.47,0,0,0,1.76,2,5.49,5.49,0,0,0,2-.93c1.54-1.15,3-2.37,4.51-3.61a46.08,46.08,0,0,1,8.47-5.94A9.88,9.88,0,0,0,36.21,20.74Zm-20-3.62c-3.23-.92-6.06-2.07-9.07-2.55A12.91,12.91,0,0,0,4.4,14.5a2.85,2.85,0,0,0-2.3,1c.18,1,1,1.4,1.76,1.74A10.92,10.92,0,0,0,7.74,18a50.19,50.19,0,0,0,7.55-.46A3.89,3.89,0,0,0,16.25,17.12Z"/></g></g></svg>