<svg id="Capa_1" data-name="Capa 1" xmlns="http://www.w3.org/2000/svg" xmlns:xlink="http://www.w3.org/1999/xlink" viewBox="0 0 298.31 160.36"><defs><style>.cls-1,.cls-9{fill:#fec37b;}.cls-2{fill:#abc3a2;}.cls-3{fill:url(#Degradado_sin_nombre_2);}.cls-4{fill:#fda256;}.cls-5{fill:#e9c88a;}.cls-6{fill:#c5c897;}.cls-7{fill:#7ebca5;}.cls-8{fill:#2dadb0;}.cls-9{font-size:13.78px;font-family:FilsonPro-Black, Filson Pro;font-weight:800;letter-spacing:0.03em;}</style><linearGradient id="Degradado_sin_nombre_2" x1="18.44" y1="173.99" x2="142.01" y2="114.07" gradientTransform="matrix(1, 0, 0, -1, 0, 254.57)" gradientUnits="userSpaceOnUse"><stop offset="0" stop-color="#2dadb0"/><stop offset="0.12" stop-color="#3eb0ae"/><stop offset="0.37" stop-color="#6ab8a8"/><stop offset="0.46" stop-color="#7ebca5"/><stop offset="1" stop-color="#c5c897"/></linearGradient></defs><title>logo waikiki grande</title><path class="cls-1" d="M185.68,45.77l12.43-24.38a6.87,6.87,0,0,1,3.43-3.23,52.43,52.43,0,0,1,6.27-2.25q3.08-.88,1.76,2.05L196.94,44.59a3.62,3.62,0,0,0,.1,3.33l9.59,18.9q1,2.06-1.17,2.93l-9.89,3.72a2.17,2.17,0,0,1-2.74-.88l-9-14.49c-.39-.68-.68-.58-.68.2l-1.28,17.23A2.86,2.86,0,0,1,180,78l-7.83,2.93c-.39.1-.59,0-.59-.39v-44a3.47,3.47,0,0,1,2-3l11-4.5a.73.73,0,0,1,1.07.49v.1a4.32,4.32,0,0,1,0,2.86L185,45.08C185.34,46.12,185.43,46.28,185.68,45.77Z"/><path class="cls-2" d="M117.4,130.12a8.36,8.36,0,0,0-5.6-.6c-9.6,1.7-18.1,9.6-25.7,15.9a44.14,44.14,0,0,1-11.2,6.8c-.7.3-.9.1-.5-.6.5-.9,1.5-1.3,2.2-2,7.7-7.9,13.9-14.1,18.6-18.5,5.8-5.5,13.3-9.9,21.1-10,8.5-.1,17.7,9.8,9.4,17a13.7,13.7,0,0,1-8.6,3.2c-1.5.1-1.6-.4-.4-1.2C119.9,138,121.3,132.32,117.4,130.12Z"/><path class="cls-3" d="M61.9,140.82a74.68,74.68,0,0,0,22.9-10l.2-.2c5.2-3.1,10.4-6.1,15.6-9.2a42.47,42.47,0,0,1,12.1-5.1c9.4-2.2,17.7,1.5,22.6,9.5,1.8,3,2.5,5.9,1.9,8.6a10.15,10.15,0,0,1-6.3,7.8c-.6.3-.6.5,0,.7,8.2,2.8,16-1.9,17.6-10.3,1-5.2-.1-10.4-3.4-15.7-7.5-12.1-22.5-14.9-35.4-11.8a64.83,64.83,0,0,0-9.5,3.6c-3.1,1.4-6.1,2.8-9.2,4.3-1.9.9-5.6,2.5-5.6,2.5a43.47,43.47,0,0,1-21.5.1h-.1c-18.7-4.3-23.8-20.4-20-37.6q.3-1.5-.9-.6c-11.6,8.6-14.4,19.3-8.4,32.2.7,1.5.5,1.6-.5.3a36.28,36.28,0,0,1,2.7-47.7c5.6-5.8,12.8-9.3,21.7-10.4,1.9-.3,1.9-.5,0-.8-11.8-1.5-22.3.8-31.6,6.8-22.7,14.7-28,47.1-9.5,67.6a46.4,46.4,0,0,0,13.5,10.4,48.13,48.13,0,0,0,30.8,5.1Z"/><path class="cls-4" d="M244.8,24.72c-.1,1.2.2,1.3.8.2l12.5-22.1A3.66,3.66,0,0,1,261,.92l7.8-.9a.85.85,0,0,1,1,.8v.3a8.49,8.49,0,0,1-.9,2.2c-4.2,8-8.4,15.8-12.4,23.4a4,4,0,0,0,0,3.8c3,6.4,6.2,13.3,9.7,20.9a3.08,3.08,0,0,1,.3,1.9,1.59,1.59,0,0,1-1.3,1.4l-10.7,1.6a2,2,0,0,1-1.9-.9l-9.1-16.1q-1-1.8-1.2.3c-.3,5-.7,10.5-1.1,16.3a2.57,2.57,0,0,1-2.1,2.5q-3.9.9-7.5,1.8a.66.66,0,0,1-.8-.5v-45a2.69,2.69,0,0,1,2.1-2.7L244,8.92a1.15,1.15,0,0,1,1.5.9c0,.1.1.3,0,.4Z"/><path class="cls-4" d="M286.1,7l-2,43.3a2,2,0,0,1-2,1.9l-9.6.4a2,2,0,0,1-2.1-1.9v-.1l-.6-43a2.08,2.08,0,0,1,1.9-2.1l12.3-.6a2,2,0,0,1,2.1,1.9Z"/><path class="cls-4" d="M222.1,63.82l-9.5,2.9a1,1,0,0,1-1.3-.7v-.3l-.6-42.6a3.87,3.87,0,0,1,2.7-3.7l11.4-3.7a1.38,1.38,0,0,1,1.8.9c0,.1.1.3.1.4v4.1c-.7,13.7-1.3,26.8-1.8,39.1A3.77,3.77,0,0,1,222.1,63.82Z"/><path class="cls-5" d="M167.4,38.22l-2.1,44.9a1.42,1.42,0,0,1-.9,1.3l-10.5,4.2a1.48,1.48,0,0,1-1.9-.8.9.9,0,0,1-.1-.5l-.7-43.6a1.57,1.57,0,0,1,.9-1.4l13.3-5.5a1.4,1.4,0,0,1,1.9.8A1.27,1.27,0,0,1,167.4,38.22Z"/><path class="cls-4" d="M287.3,56.52c2.8-2.5,3.3-6,3.9-9.4.4-2.1,1.6-2.9,3.7-2.5a3.29,3.29,0,0,1,1.6.7c1.8,1.2,2.3,2.8,1.3,4.7-1.8,3.5-6.4,6.1-10.1,7.4C286.2,57.82,286,57.62,287.3,56.52Z"/><path class="cls-6" d="M119.2,89.52c-.9,2.5-1.8,7.3-4.6,8.2s-5.6,1.8-8.7,2.6a.72.72,0,0,1-.9-.5,2.44,2.44,0,0,1,0-1.2c6.1-17.6,11.6-33.4,16.3-47.5.6-1.8,1.4-3.5,3.2-4.4a65,65,0,0,1,7.8-3.3,1.37,1.37,0,0,1,1.8.6,7.84,7.84,0,0,1,.8,1.8c4.9,16.7,9.4,32,13.6,45.7a2,2,0,0,1-1.2,2.4l-10,3.8a2,2,0,0,1-2.5-1l-4.1-8.8a1.36,1.36,0,0,0-1.6-.8l-8.8,1.5A1.19,1.19,0,0,0,119.2,89.52Zm2.4-10.8a1.14,1.14,0,0,0,.8,1.4c.2,0,.3.1.5,0l5-.8a1.13,1.13,0,0,0,.9-1.3v-.1l-2.4-9.1A1.14,1.14,0,0,0,125,68a1.09,1.09,0,0,0-.8.8Z"/><path class="cls-7" d="M72.3,80.12c2.6-5.5,5.1-10.6,7.5-15.4,1.1-2.3,5.2-4.4,6.8-1.4,1.7,3.2,3.3,6.3,4.8,9.5.3.7.6.6.8-.1l6.5-20.5a2.39,2.39,0,0,1,1.8-1.7l7.5-2c.8-.2,1.2.1,1,.9-2.7,16.3-5.4,33-8.2,49.9-.5,3.1-4.6,3.5-7.1,3.8a2.64,2.64,0,0,1-2.4-1.1l-7.9-11.8c-.1-.2-.4-.2-.6-.1l-.1.1c-3.6,5.1-7.2,10-10.7,14.9-1.5,2-3.8,2.4-6.2,2.3a2.11,2.11,0,0,1-2.2-1.9c-2.5-14.2-5.1-28.6-7.7-43.3a17.85,17.85,0,0,1-.2-2.3,1.11,1.11,0,0,1,1.1-1.1l9.4-.6a1.65,1.65,0,0,1,1.8,1.4l3.9,20.3C71.9,80.62,72.1,80.62,72.3,80.12Z"/><path class="cls-8" d="M77.4,140.12a.19.19,0,0,1,.3,0l.2.2v.1c-2.5,2-3.8,4.5-6.2,6.5-9.7,8.5-21.2,14-34,13.4-15.9-.7-27.9-10-33.6-25.2A70,70,0,0,1,0,116.52a.22.22,0,0,1,.2-.2H.3a.7.7,0,0,1,.4.5,44.1,44.1,0,0,0,3.8,8.6q13,23.25,39,24.9C55.2,151.32,67.4,146.52,77.4,140.12Z"/><path class="cls-4" d="M234.76,85.62l-2.19-9.39L240,74.5l.56,2.42-4.33,1,.29,1.22,3.77-.88.5,2.15-3.77.87.84,3.61Z"/><path class="cls-4" d="M246.43,80.35,251,79.28l.56,2.42-7.69,1.79-2.19-9.39,3.09-.72Z"/><path class="cls-4" d="M254,71.24,255.32,77a1.29,1.29,0,0,0,1.65,1,1.31,1.31,0,0,0,1-1.68l-1.34-5.76,3.08-.72,1.34,5.76c.57,2.45-1.16,4.26-3.56,4.82s-4.73-.3-5.3-2.75L250.9,72Z"/><path class="cls-4" d="M267.42,71.53l1.51-3.7,3.39-.7.08.39-2.94,6,.8,3.86-3.1.64-.79-3.8-5.12-4.41-.08-.39,3.41-.71Z"/><path class="cls-4" d="M275.45,75.86l-1.55-9.52,7.57-1.23.4,2.45-4.45.72.2,1.24,3.89-.63.35,2.17-3.88.63.19,1.21,4.45-.72.4,2.45Z"/><path class="cls-4" d="M288.34,69.63l.44,4.58-3.15.3-.92-9.6,2.46-.23,3.92,4.16-.43-4.5,3.15-.3.92,9.6-2.44.23Z"/><path class="cls-6" d="M153.74,117.09l-2.89,1.28-3.91-8.81,2.9-1.28Z"/><path class="cls-6" d="M155.83,116.17l-3.9-8.82,4.54-2c2.81-1.24,5.78-.19,6.85,2.24s-.14,5.34-2.95,6.58Zm0-7.83,1.89,4.28,1.25-.55a2.36,2.36,0,1,0-1.9-4.28Z"/><path class="cls-6" d="M166.89,111.28,163,102.46l7-3.1,1,2.26-4.12,1.83.51,1.14L171,103l.89,2-3.6,1.6.5,1.12,4.12-1.82,1,2.26Z"/><path class="cls-5" d="M174.79,107.78l-.16-10.47,2.56-1.14,7.73,7.12-3.07,1.36-1.27-1.2-2.87,1.27.08,1.73Zm2.46-5.32,1.93-.86-2-2.07Z"/><path class="cls-5" d="M186.43,98.91a1.68,1.68,0,0,0,2.25.48c.66-.3,1-.69.85-1.13-.09-.22-.33-.45-1.12-.34l-1.25.11c-.55.07-3.11.53-4-1.33s.34-3.49,2.45-4.42a3.72,3.72,0,0,1,4.54.73l-2,1.63a1.25,1.25,0,0,0-1.54-.37c-.49.21-.84.56-.67,1s.41.4,1.08.32l1.23-.13c2.44-.29,3.51.31,4.1,1.51.83,1.88-.64,3.55-2.74,4.48s-4.18.68-5.25-1Z"/><text class="cls-9" transform="translate(197.84 97.77) rotate(-16.85) scale(1.09 1)">QUE</text></svg>