<svg id="Capa_1" data-name="Capa 1" xmlns="http://www.w3.org/2000/svg" xmlns:xlink="http://www.w3.org/1999/xlink" viewBox="0 0 298.31 165.36"><defs><style>.cls-1,.cls-9{fill:#fec37b;}.cls-2{fill:#abc3a2;}.cls-3{fill:url(#Degradado_sin_nombre_2);}.cls-4{fill:#fda256;}.cls-5{fill:#e9c88a;}.cls-6{fill:#c5c897;}.cls-7{fill:#7ebca5;}.cls-8{fill:#2dadb0;}.cls-9{font-size:12px;font-family:FilsonPro-Black, Filson Pro;font-weight:800;letter-spacing:0.03em;}</style><linearGradient id="Degradado_sin_nombre_2" x1="18.44" y1="178.99" x2="142.01" y2="119.07" gradientTransform="matrix(1, 0, 0, -1, 0, 264.57)" gradientUnits="userSpaceOnUse"><stop offset="0" stop-color="#2dadb0"/><stop offset="0.12" stop-color="#3eb0ae"/><stop offset="0.37" stop-color="#6ab8a8"/><stop offset="0.46" stop-color="#7ebca5"/><stop offset="1" stop-color="#c5c897"/></linearGradient></defs><title>WAIKIKI_logo</title><path class="cls-1" d="M183.68,45.77l12.43-24.38a6.87,6.87,0,0,1,3.43-3.23,52.43,52.43,0,0,1,6.27-2.25q3.08-.88,1.76,2.05L194.94,44.59a3.62,3.62,0,0,0,.1,3.33l9.59,18.9q1,2.06-1.17,2.93l-9.89,3.72a2.17,2.17,0,0,1-2.74-.88l-9-14.49c-.39-.68-.68-.58-.68.2l-1.28,17.23A2.86,2.86,0,0,1,178,78l-7.83,2.93c-.39.1-.59,0-.59-.39v-44a3.47,3.47,0,0,1,2-3l11-4.5a.73.73,0,0,1,1.07.49v.1a4.32,4.32,0,0,1,0,2.86L183,45.08C183.34,46.12,183.43,46.28,183.68,45.77Z"/><path class="cls-2" d="M117.4,135.12a8.36,8.36,0,0,0-5.6-.6c-9.6,1.7-18.1,9.6-25.7,15.9a44.14,44.14,0,0,1-11.2,6.8c-.7.3-.9.1-.5-.6.5-.9,1.5-1.3,2.2-2,7.7-7.9,13.9-14.1,18.6-18.5,5.8-5.5,13.3-9.9,21.1-10,8.5-.1,17.7,9.8,9.4,17a13.7,13.7,0,0,1-8.6,3.2c-1.5.1-1.6-.4-.4-1.2C119.9,143,121.3,137.32,117.4,135.12Z"/><path class="cls-3" d="M61.9,145.82a74.68,74.68,0,0,0,22.9-10l.2-.2c5.2-3.1,10.4-6.1,15.6-9.2a42.47,42.47,0,0,1,12.1-5.1c9.4-2.2,17.7,1.5,22.6,9.5,1.8,3,2.5,5.9,1.9,8.6a10.15,10.15,0,0,1-6.3,7.8c-.6.3-.6.5,0,.7,8.2,2.8,16-1.9,17.6-10.3,1-5.2-.1-10.4-3.4-15.7-7.5-12.1-22.5-14.9-35.4-11.8a64.83,64.83,0,0,0-9.5,3.6c-3.1,1.4-6.1,2.8-9.2,4.3-1.9.9-5.6,2.5-5.6,2.5a43.47,43.47,0,0,1-21.5.1h-.1c-18.7-4.3-23.8-20.4-20-37.6q.3-1.5-.9-.6c-11.6,8.6-14.4,19.3-8.4,32.2.7,1.5.5,1.6-.5.3a36.28,36.28,0,0,1,2.7-47.7c5.6-5.8,12.8-9.3,21.7-10.4,1.9-.3,1.9-.5,0-.8-11.8-1.5-22.3.8-31.6,6.8-22.7,14.7-28,47.1-9.5,67.6a46.4,46.4,0,0,0,13.5,10.4,48.13,48.13,0,0,0,30.8,5.1Z"/><path class="cls-4" d="M242.8,24.72c-.1,1.2.2,1.3.8.2l12.5-22.1A3.66,3.66,0,0,1,259,.92l7.8-.9a.85.85,0,0,1,1,.8v.3a8.49,8.49,0,0,1-.9,2.2c-4.2,8-8.4,15.8-12.4,23.4a4,4,0,0,0,0,3.8c3,6.4,6.2,13.3,9.7,20.9a3.08,3.08,0,0,1,.3,1.9,1.59,1.59,0,0,1-1.3,1.4l-10.7,1.6a2,2,0,0,1-1.9-.9l-9.1-16.1q-1-1.8-1.2.3c-.3,5-.7,10.5-1.1,16.3a2.57,2.57,0,0,1-2.1,2.5q-3.9.9-7.5,1.8a.66.66,0,0,1-.8-.5v-45a2.69,2.69,0,0,1,2.1-2.7L242,8.92a1.15,1.15,0,0,1,1.5.9c0,.1.1.3,0,.4Z"/><path class="cls-4" d="M284.1,7l-2,43.3a2,2,0,0,1-2,1.9l-9.6.4a2,2,0,0,1-2.1-1.9v-.1l-.6-43a2.08,2.08,0,0,1,1.9-2.1l12.3-.6a2,2,0,0,1,2.1,1.9Z"/><path class="cls-4" d="M220.1,63.82l-9.5,2.9a1,1,0,0,1-1.3-.7v-.3l-.6-42.6a3.87,3.87,0,0,1,2.7-3.7l11.4-3.7a1.38,1.38,0,0,1,1.8.9c0,.1.1.3.1.4v4.1c-.7,13.7-1.3,26.8-1.8,39.1A3.77,3.77,0,0,1,220.1,63.82Z"/><path class="cls-5" d="M165.4,39.22l-2.1,44.9a1.42,1.42,0,0,1-.9,1.3l-10.5,4.2a1.48,1.48,0,0,1-1.9-.8.9.9,0,0,1-.1-.5l-.7-43.6a1.57,1.57,0,0,1,.9-1.4l13.3-5.5a1.4,1.4,0,0,1,1.9.8A1.27,1.27,0,0,1,165.4,39.22Z"/><path class="cls-4" d="M287.3,58.52c2.8-2.5,3.3-6,3.9-9.4.4-2.1,1.6-2.9,3.7-2.5a3.29,3.29,0,0,1,1.6.7c1.8,1.2,2.3,2.8,1.3,4.7-1.8,3.5-6.4,6.1-10.1,7.4C286.2,59.82,286,59.62,287.3,58.52Z"/><path class="cls-6" d="M119.2,94.52c-.9,2.5-1.8,7.3-4.6,8.2s-5.6,1.8-8.7,2.6a.72.72,0,0,1-.9-.5,2.44,2.44,0,0,1,0-1.2c6.1-17.6,11.6-33.4,16.3-47.5.6-1.8,1.4-3.5,3.2-4.4a65,65,0,0,1,7.8-3.3,1.37,1.37,0,0,1,1.8.6,7.84,7.84,0,0,1,.8,1.8c4.9,16.7,9.4,32,13.6,45.7a2,2,0,0,1-1.2,2.4l-10,3.8a2,2,0,0,1-2.5-1l-4.1-8.8a1.36,1.36,0,0,0-1.6-.8l-8.8,1.5A1.19,1.19,0,0,0,119.2,94.52Zm2.4-10.8a1.14,1.14,0,0,0,.8,1.4c.2,0,.3.1.5,0l5-.8a1.13,1.13,0,0,0,.9-1.3v-.1l-2.4-9.1A1.14,1.14,0,0,0,125,73a1.09,1.09,0,0,0-.8.8Z"/><path class="cls-7" d="M72.3,85.12c2.6-5.5,5.1-10.6,7.5-15.4,1.1-2.3,5.2-4.4,6.8-1.4,1.7,3.2,3.3,6.3,4.8,9.5.3.7.6.6.8-.1l6.5-20.5a2.39,2.39,0,0,1,1.8-1.7l7.5-2c.8-.2,1.2.1,1,.9-2.7,16.3-5.4,33-8.2,49.9-.5,3.1-4.6,3.5-7.1,3.8a2.64,2.64,0,0,1-2.4-1.1l-7.9-11.8c-.1-.2-.4-.2-.6-.1l-.1.1c-3.6,5.1-7.2,10-10.7,14.9-1.5,2-3.8,2.4-6.2,2.3a2.11,2.11,0,0,1-2.2-1.9c-2.5-14.2-5.1-28.6-7.7-43.3a17.85,17.85,0,0,1-.2-2.3,1.11,1.11,0,0,1,1.1-1.1l9.4-.6a1.65,1.65,0,0,1,1.8,1.4l3.9,20.3C71.9,85.62,72.1,85.62,72.3,85.12Z"/><path class="cls-8" d="M77.4,145.12a.19.19,0,0,1,.3,0l.2.2v.1c-2.5,2-3.8,4.5-6.2,6.5-9.7,8.5-21.2,14-34,13.4-15.9-.7-27.9-10-33.6-25.2A70,70,0,0,1,0,121.52a.22.22,0,0,1,.2-.2H.3a.7.7,0,0,1,.4.5,44.1,44.1,0,0,0,3.8,8.6q13,23.25,39,24.9C55.2,156.32,67.4,151.52,77.4,145.12Z"/><path class="cls-4" d="M229.65,87.17,227.75,79l6.45-1.5.49,2.1-3.77.88.25,1.06,3.28-.76.44,1.87-3.29.76.74,3.14Z"/><path class="cls-4" d="M239.82,82.58l4-.93.49,2.1-6.69,1.56-1.91-8.18,2.69-.62Z"/><path class="cls-4" d="M246.39,74.65l1.17,5a1.13,1.13,0,0,0,1.44.92,1.15,1.15,0,0,0,.91-1.47l-1.17-5,2.69-.63,1.16,5c.5,2.13-1,3.7-3.1,4.19s-4.12-.26-4.61-2.4l-1.17-5Z"/><path class="cls-4" d="M258.09,74.9l1.32-3.22,2.95-.61.07.34-2.56,5.25.7,3.35-2.7.57-.69-3.31-4.46-3.84-.07-.34,3-.62Z"/><path class="cls-4" d="M265.09,78.67l-1.35-8.29,6.59-1.07.35,2.13-3.87.63.17,1.08,3.38-.55.31,1.89-3.38.55.17,1,3.87-.62.35,2.13Z"/><path class="cls-4" d="M276.31,73.25l.38,4L274,77.5l-.8-8.36,2.14-.21,3.42,3.63-.38-3.92,2.75-.26.8,8.36-2.13.2Z"/><path class="cls-6" d="M153.51,117.91,151,119l-3.4-7.67,2.52-1.12Z"/><path class="cls-6" d="M155.34,117.1l-3.4-7.68,3.95-1.74a4.22,4.22,0,1,1,3.4,7.67Zm0-6.82L157,114l1.08-.48a2.05,2.05,0,1,0-1.65-3.73Z"/><path class="cls-6" d="M165,112.84l-3.39-7.67,6.1-2.71.88,2L165,106l.44,1,3.13-1.38.78,1.75-3.13,1.39.43,1,3.59-1.58.87,2Z"/><path class="cls-5" d="M171.85,109.79l-.15-9.11,2.24-1,6.73,6.2L178,107.08l-1.1-1-2.5,1.11.06,1.5Zm2.14-4.63,1.68-.74-1.76-1.81Z"/><path class="cls-5" d="M182,102.07a1.47,1.47,0,0,0,2,.42c.58-.26.91-.6.74-1-.08-.19-.28-.39-1-.29l-1.1.09c-.47.06-2.7.46-3.46-1.16s.29-3,2.12-3.85a3.25,3.25,0,0,1,4,.63l-1.78,1.42A1.11,1.11,0,0,0,182.1,98c-.42.19-.73.5-.58.83s.35.35.94.28l1.07-.11c2.13-.25,3.06.27,3.57,1.31.72,1.64-.56,3.1-2.38,3.9s-3.64.59-4.58-.84Z"/><text class="cls-9" transform="matrix(1.03, -0.36, 0.33, 0.94, 195.39, 99.67)">QUE</text></svg>