<svg id="Capa_1" data-name="Capa 1" xmlns="http://www.w3.org/2000/svg" xmlns:xlink="http://www.w3.org/1999/xlink" viewBox="0 0 147.86 113.33"><defs><style>.cls-1{fill:#abc3a2;}.cls-2{fill:url(#Degradado_sin_nombre_2);}.cls-3{fill:url(#Degradado_sin_nombre_18);}.cls-4{fill:#2dadb0;}.cls-5{fill:#fda256;}</style><linearGradient id="Degradado_sin_nombre_2" x1="17.44" y1="-153.74" x2="141.01" y2="-213.65" gradientTransform="matrix(1, 0, 0, -1, 0, -118.18)" gradientUnits="userSpaceOnUse"><stop offset="0" stop-color="#2dadb0"/><stop offset="0.12" stop-color="#3eb0ae"/><stop offset="0.37" stop-color="#6ab8a8"/><stop offset="0.46" stop-color="#7ebca5"/><stop offset="1" stop-color="#c5c897"/></linearGradient><linearGradient id="Degradado_sin_nombre_18" x1="53.49" y1="47.48" x2="109.33" y2="16.14" gradientUnits="userSpaceOnUse"><stop offset="0" stop-color="#3cb0ae"/><stop offset="0.17" stop-color="#7ebca5"/><stop offset="0.39" stop-color="#c5c897"/><stop offset="0.59" stop-color="#e9c88a"/><stop offset="0.76" stop-color="#fec37b"/><stop offset="1" stop-color="#fda256"/></linearGradient></defs><title>wikiki_min</title><path class="cls-1" d="M116.4,85.09a8.36,8.36,0,0,0-5.6-.6c-9.6,1.7-18.1,9.6-25.7,15.9a44.14,44.14,0,0,1-11.2,6.8c-.7.3-.9.1-.5-.6.5-.9,1.5-1.3,2.2-2,7.7-7.9,13.9-14.1,18.6-18.5,5.8-5.5,13.3-9.9,21.1-10,8.5-.1,17.7,9.8,9.4,17a13.7,13.7,0,0,1-8.6,3.2c-1.5.1-1.6-.4-.4-1.2C118.9,93,120.3,87.29,116.4,85.09Z"/><path class="cls-2" d="M60.9,95.79a74.68,74.68,0,0,0,22.9-10l.2-.2c5.2-3.1,10.4-6.1,15.6-9.2a42.47,42.47,0,0,1,12.1-5.1c9.4-2.2,17.7,1.5,22.6,9.5,1.8,3,2.5,5.9,1.9,8.6a10.15,10.15,0,0,1-6.3,7.8c-.6.3-.6.5,0,.7,8.2,2.8,16-1.9,17.6-10.3,1-5.2-.1-10.4-3.4-15.7-7.5-12.1-22.5-14.9-35.4-11.8a64.83,64.83,0,0,0-9.5,3.6c-3.1,1.4-6.1,2.8-9.2,4.3-1.9.9-5.6,2.5-5.6,2.5a43.47,43.47,0,0,1-21.5.1h-.1C44.1,66.29,39,50.19,42.8,33q.3-1.5-.9-.6c-11.6,8.6-14.4,19.3-8.4,32.2.7,1.5.5,1.6-.5.3a36.28,36.28,0,0,1,2.7-47.7c5.6-5.8,12.8-9.3,21.7-10.4,1.9-.3,1.9-.5,0-.8-11.8-1.5-22.3.8-31.6,6.8-22.7,14.7-28,47.1-9.5,67.6a46.4,46.4,0,0,0,13.5,10.4,48.13,48.13,0,0,0,30.8,5.1Z"/><path class="cls-3" d="M72.27,33.5C75,27.68,77.66,22.28,80.2,17.21c1.17-2.44,5.5-4.66,7.2-1.49,1.8,3.39,3.49,6.67,5.08,10.06.31.74.63.63.84-.11L100.2,4a2.53,2.53,0,0,1,1.91-1.8L110,.06c.85-.21,1.27.11,1.06,1-2.86,17.24-5.71,34.91-8.68,52.8-.53,3.28-4.86,3.7-7.51,4a2.81,2.81,0,0,1-2.54-1.17L84,44.19c-.11-.21-.42-.21-.63-.11l-.11.11C79.46,49.58,75.65,54.77,72,60c-1.59,2.12-4,2.54-6.56,2.44a2.23,2.23,0,0,1-2.33-2c-2.65-15-5.4-30.26-8.15-45.82a20.1,20.1,0,0,1-.21-2.43A1.18,1.18,0,0,1,55.86,11l10-.63a1.75,1.75,0,0,1,1.91,1.48l4.12,21.48C71.84,34,72.05,34,72.27,33.5Z"/><path class="cls-4" d="M77.4,93.09a.19.19,0,0,1,.3,0l.2.2v.1c-2.5,2-3.8,4.5-6.2,6.5-9.7,8.5-21.2,14-34,13.4-15.9-.7-27.9-10-33.6-25.2A70,70,0,0,1,0,69.49a.22.22,0,0,1,.2-.2H.3a.7.7,0,0,1,.4.5,44.1,44.1,0,0,0,3.8,8.6q13,23.25,39,24.9C55.2,104.29,67.4,99.49,77.4,93.09Z"/><path class="cls-5" d="M112.1,49c3-2.64,3.49-6.35,4.12-10,.43-2.22,1.7-3.06,3.92-2.64a3.47,3.47,0,0,1,1.69.74c1.91,1.27,2.44,3,1.38,5-1.91,3.71-6.77,6.46-10.69,7.83C110.93,50.37,110.72,50.15,112.1,49Z"/></svg>