<svg xmlns="http://www.w3.org/2000/svg" viewBox="0 0 18.2 549.96"><defs><style>.cls-1{fill:#76bbb6;}</style></defs><title>linea-curvas</title><g id="Capa_2" data-name="Capa 2"><g id="Capa_1-2" data-name="Capa 1"><path class="cls-1" d="M18.2,0A18.27,18.27,0,0,1,0,18.33V36.66A18.27,18.27,0,0,1,18.2,55,18.27,18.27,0,0,1,0,73.33V91.66A18.27,18.27,0,0,1,18.2,110,18.26,18.26,0,0,1,0,128.32v18.34A18.26,18.26,0,0,1,18.2,165,18.27,18.27,0,0,1,0,183.32v18.33A18.27,18.27,0,0,1,18.2,220,18.27,18.27,0,0,1,0,238.32v18.33A18.27,18.27,0,0,1,18.2,275,18.26,18.26,0,0,1,0,293.31v18.34A18.26,18.26,0,0,1,18.2,330,18.27,18.27,0,0,1,0,348.31v18.33A18.27,18.27,0,0,1,18.2,385,18.27,18.27,0,0,1,0,403.31v18.33A18.27,18.27,0,0,1,18.2,440,18.26,18.26,0,0,1,0,458.3v18.33A18.27,18.27,0,0,1,18.2,495,18.27,18.27,0,0,1,0,513.3v18.33A18.27,18.27,0,0,1,18.2,550Z"/></g></g></svg>