<svg xmlns="http://www.w3.org/2000/svg" viewBox="0 0 18.2 549.96"><defs><style>.cls-1{fill:#76bbb6;}</style></defs><title>linea-curvas-end</title><g id="Capa_2" data-name="Capa 2"><g id="Capa_1-2" data-name="Capa 1"><path class="cls-1" d="M0,0A18.27,18.27,0,0,0,18.2,18.33V36.66a18.34,18.34,0,0,0,0,36.67V91.66a18.33,18.33,0,0,0,0,36.66v18.34a18.33,18.33,0,0,0,0,36.66v18.33a18.34,18.34,0,0,0,0,36.67v18.33a18.33,18.33,0,0,0,0,36.66v18.34a18.33,18.33,0,0,0,0,36.66v18.33a18.34,18.34,0,0,0,0,36.67v18.33a18.33,18.33,0,0,0,0,36.66v18.33a18.34,18.34,0,0,0,0,36.67v18.33A18.27,18.27,0,0,0,0,550Z"/></g></g></svg>