<svg xmlns="http://www.w3.org/2000/svg" viewBox="0 0 100.54 39.92"><defs><style>.cls-1{fill:#fd8130;}</style></defs><title>decoracion_lineal_2</title><g id="Capa_2" data-name="Capa 2"><g id="OBJECTS"><path class="cls-1" d="M18.91,22.38c2.28.72,4.58,1.38,6.83,2.18a38.25,38.25,0,0,1,9.73,5,11.26,11.26,0,0,1,3.16,3.29,4.85,4.85,0,0,1,.16,5A3.24,3.24,0,0,1,34,39.37a16.6,16.6,0,0,1-2.71-2c-1.4-1.24-2.69-2.59-4.09-3.83C25.1,31.71,23,30,20.92,28.2a28.58,28.58,0,0,0-6.69-4c-4.67-2.07-2.89-1.83-8-1.5-1.53.1-3.06.13-4.6.17a3.51,3.51,0,0,1-1.17-.13A.84.84,0,0,1,0,22.17a.86.86,0,0,1,.32-.66,2.1,2.1,0,0,1,.93-.27c1.19-.13,2.39-.24,3.59-.32,2-.15,4-.14,6-.43a13.53,13.53,0,0,0,7-3.13,29.37,29.37,0,0,0,3.09-3.12c1.48-1.71,2.88-3.5,4.29-5.27A28.78,28.78,0,0,1,31,3.19a22.6,22.6,0,0,1,3.26-1.91A5.9,5.9,0,0,1,36.37.76a3,3,0,0,1,3.31,2.75A4.86,4.86,0,0,1,39.1,6.6a17.24,17.24,0,0,1-1.9,2.8,29.52,29.52,0,0,1-10.7,7.86c-1.65.72-3.31,1.4-5,2.09,0,.59.44.45.72.44,2-.09,4-.21,6-.31,1.6-.08,3.19-.19,4.79-.23a8.79,8.79,0,0,0,3.66-.88,23.9,23.9,0,0,0,6-3.91c1.67-1.53,3.28-3.12,4.93-4.68,2.08-2,4.12-4,6.27-5.87a28.16,28.16,0,0,1,3.9-2.78A7.77,7.77,0,0,1,62.6,0a2.92,2.92,0,0,1,2.88,3.53,8.32,8.32,0,0,1-1.64,3.82,18.77,18.77,0,0,1-6,5.47,47.9,47.9,0,0,1-8.88,4.08c-.88.3-1.78.55-2.65.87-.35.12-.79.13-1,.65.5,0,1,0,1.4,0,3.39-.21,6.78-.45,10.17-.64a7,7,0,0,0,2.67-.74,27.2,27.2,0,0,0,7.19-5c1.33-1.31,2.59-2.69,3.89-4,.92-1,1.81-2,2.78-2.88a11.64,11.64,0,0,1,4.78-2.8A7.54,7.54,0,0,1,80.29,2a2.24,2.24,0,0,1,2.32,2,4.56,4.56,0,0,1-.28,2.55A11,11,0,0,1,80.14,10a17.09,17.09,0,0,1-3.74,3,31.86,31.86,0,0,1-8,3.54c-.44.12-.87.3-1.26.44l0,.21a.75.75,0,0,0,.2,0c1.93-.12,3.86-.23,5.79-.38,1.26-.09,2.51-.12,3.77-.13a20.53,20.53,0,0,0,4.71-.79c2.2-.56,4.36-1.24,6.52-1.91a36.55,36.55,0,0,1,5.85-1.28,9.45,9.45,0,0,1,4,.31,5.94,5.94,0,0,1,1.61.76,2.12,2.12,0,0,1,.71,3,6,6,0,0,1-1.31,1.48,8,8,0,0,1-3.67,1.49,16.74,16.74,0,0,1-4.58.26c-2.65-.23-5.3-.51-8-.74a45,45,0,0,0-4.78-.35c-3.13,0-6.26.2-9.38.32a11.49,11.49,0,0,0-1.37.28l2.32.69a36.47,36.47,0,0,1,11.09,5.39,8.26,8.26,0,0,1,3,3.67,3.1,3.1,0,0,1-.68,3.51,3.15,3.15,0,0,1-3.66.79A9.62,9.62,0,0,1,77,32.22c-1.58-1.22-3.11-2.51-4.64-3.8A38.68,38.68,0,0,0,62.25,22c-1.78-.73-3.6-1.38-5.42-2a3.07,3.07,0,0,0-1.17-.15q-3.69.19-7.38.44a3.45,3.45,0,0,0-.72.18c0,.57.46.49.72.58a33.79,33.79,0,0,1,9.37,4.85,21.05,21.05,0,0,1,5.7,5.82A8.57,8.57,0,0,1,64.43,34a2.84,2.84,0,0,1-2.72,3.76A6.2,6.2,0,0,1,58.07,37a19.46,19.46,0,0,1-3.94-3.06c-2.11-2-4.19-4.11-6.36-6.08a28.32,28.32,0,0,0-11.4-6.39,6,6,0,0,0-2-.3c-4.92.27-9.84.59-14.76.9-.26,0-.52.08-.78.12Zm24-5.59A43.22,43.22,0,0,0,48,15.31a43.74,43.74,0,0,0,8.9-4A17.7,17.7,0,0,0,62.14,6.7a9.14,9.14,0,0,0,1.56-3c.33-1.2-.21-1.95-1.49-2a7.09,7.09,0,0,0-1.77.22,8.9,8.9,0,0,0-3.85,2Q53.4,6.7,50.32,9.55c-2.35,2.17-4.64,4.4-7,6.61A4.3,4.3,0,0,0,42.94,16.79Zm-22.43.79a1.72,1.72,0,0,0,.61,0c1.84-.78,3.7-1.52,5.5-2.38a28.63,28.63,0,0,0,9.64-7.62A6.7,6.7,0,0,0,37.71,5a2,2,0,0,0-.27-2.08c-.62-.62-1.35-.4-2.06-.16a11.83,11.83,0,0,0-3.45,2,31.55,31.55,0,0,0-5.33,5.38c-1.87,2.34-3.82,4.62-5.73,6.93A6.61,6.61,0,0,0,20.51,17.58Zm21.08,3.81c1.42.84,2.51,1.45,3.57,2.13A48.65,48.65,0,0,1,53,30.27c1.37,1.36,2.75,2.72,4.21,4a11.2,11.2,0,0,0,2.56,1.53,4,4,0,0,0,1.74.28,1.13,1.13,0,0,0,1.19-1.46,4.54,4.54,0,0,0-.64-1.65,20.41,20.41,0,0,0-2.33-3,31.39,31.39,0,0,0-17.2-8.63A6.09,6.09,0,0,0,41.59,21.39Zm-23,2.95c.29.23.57.48.88.69a69.2,69.2,0,0,1,9.2,7.34c1.36,1.27,2.71,2.57,4.1,3.81A15.74,15.74,0,0,0,35,37.84a1.25,1.25,0,0,0,1.77-.34,3.23,3.23,0,0,0,.3-3.72,9.18,9.18,0,0,0-2.61-2.73,36.23,36.23,0,0,0-6.22-3.58A42.38,42.38,0,0,0,18.6,24.34ZM80.39,3.77a7.38,7.38,0,0,0-1.32.13,10.58,10.58,0,0,0-4.5,2.46c-.87.81-1.68,1.7-2.52,2.55-1.76,1.8-3.53,3.59-5.29,5.4-.2.2-.37.44-.81,1,1.59-.49,2.8-.81,4-1.23A25.94,25.94,0,0,0,77.36,9.9a11.44,11.44,0,0,0,3-3.44A2.28,2.28,0,0,0,80.39,3.77Zm-16,17c.28.17.55.37.84.51a39.44,39.44,0,0,1,6.63,4.42c1.4,1.14,2.74,2.34,4.14,3.47a30,30,0,0,0,2.73,2,4.45,4.45,0,0,0,1.66.62,1.37,1.37,0,0,0,1.57-1.74,5.15,5.15,0,0,0-1-1.91,10.58,10.58,0,0,0-2-1.7A34.2,34.2,0,0,0,64.34,20.8Zm20.11-3.68c.26.2.4.4.55.42a39.73,39.73,0,0,0,8.36.45,13.77,13.77,0,0,0,3.29-.75,2.31,2.31,0,0,0,1.78-1.73,2.84,2.84,0,0,0-2.3-1,13.48,13.48,0,0,0-3,.1A68.33,68.33,0,0,0,84.45,17.12Z"/></g></g></svg>