<?xml version="1.0" encoding="utf-8"?>
<!-- Generator: Adobe Illustrator 23.0.5, SVG Export Plug-In . SVG Version: 6.00 Build 0)  -->
<svg version="1.1" id="Capa_1" xmlns="http://www.w3.org/2000/svg" xmlns:xlink="http://www.w3.org/1999/xlink" x="0px" y="0px"
	 viewBox="0 0 445.8 446.3" style="enable-background:new 0 0 445.8 446.3;" xml:space="preserve">
<style type="text/css">
	.st0{fill:#FFFFFF;}
</style>
<title>logo_min_waikiki</title>
<path d="M150.1,164.1c0,0.5,0,0.9-0.1,1.4c-0.9,4-1.7,8-2.2,12.1c-0.9,7.2-1.1,14.4-0.4,21.6c0.6,6.1,2,12,4.3,17.7
	c4,10.2,11.2,18.7,20.5,24.5c7.3,4.6,15.4,7.9,23.9,9.7c8.4,1.9,17.1,2.7,25.7,2.2c3.2-0.2,6.4-0.3,9.5-0.6c5.1-0.6,10-1.8,14.8-3.5
	c6-2.2,11.8-4.7,17.5-7.6c5-2.4,9.9-5,14.9-7.3c5.9-2.9,12.1-5.1,18.5-6.7c4.8-1.2,9.7-2,14.6-2.5c3.8-0.4,7.6-0.5,11.5-0.3
	c12.3,0.5,23.9,3.4,34.5,10c11.7,7.2,20.5,18.3,25,31.2c2.2,6,3,12.4,2.4,18.8c-0.4,5.3-2,10.3-4.6,14.9c-4.8,7.9-11.8,12.4-20.8,14
	c-4.8,0.9-9.8,0.3-14.3-1.8c-0.8-0.2-1.5-0.7-2-1.4c0.2-0.2,0.5-0.3,0.8-0.4c3.7-0.7,6.9-2.7,9.3-5.6c4.5-5.2,6.6-12.1,5.7-19
	c-0.3-1.7-0.7-3.3-1.3-4.9c-4.6-13-16.1-24.8-31.2-28.5c-3.7-0.9-7.5-1.3-11.4-1.2c-7,0.2-14,1.6-20.5,4.1c-6.9,2.5-13.6,5.7-20,9.4
	c-5.7,3.3-11.3,6.7-17,10.1c-9.6,5.9-19.2,11.7-29.1,17.1c-8.9,4.9-18.2,9-27.8,12.2c-5.6,1.9-11.3,3.2-17.1,4
	c-6.3,0.8-12.6,1-18.9,0.6c-28-1.6-53.9-14.8-71.2-32.5c-13.7-13.7-23-31.2-26.6-50.3C56.9,173.4,89,121.9,140.6,108.1
	c4.8-1.4,9.8-2.3,14.8-2.7c3.3-0.3,6.5-0.6,9.7-0.7c6.8-0.1,13.6,0.5,20.3,1.7c0.3,0.1,0.7,0.2,1,0.4c-0.1,0.6-0.6,0.4-0.8,0.5
	c-2,0.3-3.9,0.5-5.9,0.7c-7.9,1.1-15.7,3.3-22.9,6.8c-22.7,10.7-39.1,31.3-44.5,55.8c-1.8,8.1-2.3,16.4-1.6,24.7
	c1.5,16.7,8.2,32.5,19.2,45.2c0.1,0.2,0.3,0.3,0.4,0.5c0.1,0,0.1,0,0.3,0.1c0-0.6-0.2-1.1-0.6-1.5c-2.3-4.5-4.2-9.2-5.6-14
	c-1.5-5-2.3-10.2-2.3-15.5c-0.1-8.1,1.9-16.1,5.8-23.2c4.9-9,12.1-16.6,20.7-22.1c0.3-0.2,0.6-0.4,0.9-0.5
	C149.8,164.1,150,164.1,150.1,164.1z"/>
<path d="M212.8,172.6c0.6-1.1,0.9-1.7,1.2-2.3c5.2-10.8,10.5-21.7,15.7-32.5c0.4-0.9,0.9-1.8,1.4-2.6c1.3-2.3,3.5-3.8,6.1-4.1
	c0.6-0.1,1.3-0.2,1.9-0.3c3.3-0.6,5.2,0.3,6.8,3.4c2.2,4.2,4.3,8.5,6.4,12.7c1.3,2.7,2.7,5.3,4.1,7.9c0.2,0.4,0.5,0.8,0.8,1.3
	c0.9-0.3,0.8-1,1-1.6c1.5-4.3,2.9-8.6,4.3-12.9c3.6-10.8,7.2-21.6,10.6-32.5c0.5-2.2,2.4-3.9,4.6-4.3c4.8-1.1,9.6-2.5,14.4-3.8
	c0.7-0.2,1.4-0.4,2.1-0.5c0.9-0.1,1.7,0.5,1.9,1.4c0,0.1,0,0.1,0,0.2c0,0.5,0,1-0.1,1.5c-1.7,10.3-3.4,20.7-5.2,31
	c-1.5,8.9-2.9,17.7-4.4,26.6c-1.4,8-2.7,16-4.1,24.1s-2.7,16.1-4,24.1l-0.9,5.4c0,0.3-0.1,0.6-0.2,0.8c-0.4,2.6-2.4,4.7-5,5.1
	c-2.4,0.6-4.8,1.1-7.2,1.7c-1,0.2-1.9,0.4-2.9,0.6c-2.1,0.4-4.2-0.5-5.4-2.2c-0.4-0.6-0.8-1.2-1.2-1.8l-16-23.9
	c-0.4-0.6-0.9-1.3-1.3-1.9c-0.9,0.3-1.1,1-1.5,1.5c-4.9,6.7-9.9,13.5-14.8,20.2c-3,4.1-6,8.1-9,12.1c-0.6,0.8-1.2,1.6-1.9,2.3
	c-1.3,1.4-3.1,2.3-5.1,2.4c-2,0.1-4.1,0.3-6.1,0.4c-0.1,0-0.3,0-0.4,0c-3,0.1-4.5-1-5.1-4c-0.5-2.5-0.9-5-1.3-7.5
	c-1.5-8.7-3-17.3-4.6-25.9c-1.6-9.3-3.2-18.5-4.9-27.8s-3.3-18.5-4.9-27.8c-0.6-3.3-1.2-6.6-1.7-9.8c-0.1-0.8-0.2-1.6-0.1-2.3
	c0-1.5,1.1-2.9,2.6-3.3c0.8-0.2,1.5-0.3,2.3-0.3c4.4-0.2,8.8-0.3,13.2-0.4c0.9,0,1.7-0.1,2.6-0.2c0.6,0,1.1-0.1,1.7-0.1
	c3-0.1,4.4,0.9,5,3.8c0.3,1.4,0.6,2.8,0.8,4.2l7.7,40.4C212.4,171.3,212.5,171.7,212.8,172.6z"/>
<path d="M234.9,301c-2.6,2.8-5.1,5.7-7.5,8.8c-3,3.7-6.4,7.2-10.2,10.2c-10,8.6-21.3,15.5-33.5,20.6c-6.7,2.8-13.8,4.8-20.9,6.1
	c-6.4,1.1-13,1.4-19.5,1c-12.9-0.7-25.5-4.3-36.9-10.4c-10.6-5.8-19.7-14.1-26.5-24.1c-5.6-8.3-10-17.3-13-26.8
	c-2.8-8.5-4.8-17.3-6.1-26.2c-0.6-4-1-8-1.4-12c0-0.2,0-0.4,0-0.6c0.6,0,0.6,0.5,0.7,0.9c3.5,10.7,8.4,20.9,14.7,30.3
	c7.4,11.2,16.8,21,27.7,28.7c10.4,7.2,22,12.4,34.3,15.2c5.7,1.2,11.4,2.1,17.2,2.6c3.3,0.3,6.7,0.4,10,0.3
	c4.1-0.1,8.3-0.6,12.3-1.2c8-1.2,16-3.2,23.6-5.9c10.9-3.9,21.3-9,31-15.3C232.2,302.3,233.5,301.6,234.9,301z"/>
<path d="M310.4,308.4c0.7-0.6,1.2-1,1.7-1.4c2.5-1.9,4.5-4.3,6-7.1c1.7-3.2,2.2-7,1.3-10.5c-1-4.3-3.8-6.6-8-7.6
	c-3.3-0.6-6.7-0.5-9.9,0.2c-6.9,1.4-13.5,3.8-19.6,7.3c-6.2,3.5-12.1,7.6-17.7,12.1c-5.4,4.3-10.8,8.8-16.1,13.1
	c-4.5,3.7-9.1,7.1-14,10.3c-5,3.3-10.3,5.9-15.9,8c-0.7,0.3-1.5,0.5-2.2,0.6c0.2-0.3,0.5-0.5,0.7-0.8c5.1-3.9,9.9-8.3,14.3-13
	c6.4-6.5,12.7-13.2,19-19.7c5.5-5.7,11.1-11.3,17.2-16.5c5.5-4.8,11.5-9,17.8-12.6c5.3-2.9,10.9-5.1,16.8-6.4
	c4.3-1.1,8.8-1.4,13.3-1c9.4,0.8,17.7,6.1,22.5,14.2c1.9,3,2.8,6.5,2.8,10.1c-0.1,3.5-1.2,6.9-3.3,9.7c-2.7,3.8-6.4,6.7-10.7,8.4
	c-4.7,1.9-9.8,2.9-14.9,2.9C311.1,308.6,310.7,308.5,310.4,308.4z"/>
<path d="M405,325.3c0-0.6-0.4-0.9-0.8-1.2c-1.4-1-2.8-2-4.1-3c-0.5-0.4-1-0.8-1.5-1.3c1-2,2.1-3.9,3.4-5.7c0.4,0.1,0.7,0.3,1.1,0.5
	c3.2,2.1,16,11.5,17.1,12.7c-0.9,1.9-1.9,3.7-3.1,5.5c-0.7,0-1.5-0.1-2.2-0.1c-3-0.5-6-1-9-1.5c-0.5,0-1,0-1.5,0
	c0.2,0.4,0.5,0.8,0.7,1.2c1.7,2.3,3.5,4.5,5.2,6.7c0.5,0.7,1,1.4,1.4,2c-0.7,2.1-1.9,4.1-3.4,5.7c-0.3,0-0.5-0.1-0.8-0.2
	c-6.2-2.9-12.4-5.9-18.6-8.9c-0.2-0.1-0.4-0.3-0.6-0.5c0.8-2.1,1.9-4,3.4-5.8c2.5,0.7,4.6,2.3,7,3.1c0.4-0.5,0.1-0.7-0.1-1
	c-1.1-1.4-2.2-2.8-3.3-4.2c-0.4-0.5-0.8-1.1-1.3-1.8c0.5-0.9,0.9-1.7,1.4-2.5c0.3-0.5,0.6-0.9,1-1.4
	C399.3,324.2,402.2,324.7,405,325.3l0.2-0.1L405,325.3z"/>
<path d="M1.5,190.3c0-2.3,0.4-4.6,1.3-6.7c1-0.1,2.1-0.2,3.3-0.3s2.3,0,3.4-0.1c1.2,0.1,2.4-0.1,3.5-0.5c-1.3-0.9-2.7-1.8-4.1-2.5
	c-1.3-0.8-2.7-1.6-4.1-2.4c0-1.6,0.3-3.2,0.9-4.6c3.1-0.7,6.3-0.4,9.6-1.1c-1.4-1.1-2.9-2-4.5-2.7c-1.5-0.8-3-1.6-4.4-2.4
	c0.1-2.3,0.6-4.5,1.4-6.6c0.3,0.1,0.6,0.2,0.9,0.3c6.1,3.5,12.3,7.1,18.4,10.6c0.3,0.2,0.5,0.4,0.7,0.6c-0.2,1.6-0.5,3.2-1,4.7
	c-1.6,0.4-3.4,0.7-5.1,0.6c-1.7,0.1-3.4,0.3-5,0.5c-0.1,0.5,0.2,0.6,0.5,0.8l6.3,3.5c0.6,0.3,1.2,0.7,1.8,1.1
	c-0.2,1.7-0.6,3.4-1.2,5L1.5,190.3z"/>
<path d="M279.3,35.7c-1.9,0.9-4,1.1-6,0.5c-2-0.4-3.9-1.5-5.2-3c-1.3-1.6-2-3.7-1.9-5.9c-0.5-0.4-1.1-0.7-1.6-1.1
	c-3.8-2.4-5.6-6.9-4.6-11.3c0.8-4.6,3.5-8,8.1-9.1c4.3-1.2,9-0.1,12.3,3c3.4,3,4.2,6.9,3.2,11.2c-1.1,4.7-5.1,8.2-9.9,8.5
	c-0.3,0-0.5,0.1-0.9,0.1c-0.1,1.1,0.7,2.1,1.8,2.3c0.8,0.2,1.5,0.2,2.3,0.2c0.5,0,1,0,1.5,0C278.8,32.7,279.1,34.1,279.3,35.7z
	 M266.6,17.3c0,2.7,1.5,4.8,3.9,5.3c2.4,0.7,5-0.6,5.9-3c0.4-0.8,0.6-1.6,0.7-2.4c0.4-2.4-1.1-4.7-3.4-5.5c-2.5-0.7-4.8-0.3-6.3,2.5
	C266.9,15.1,266.6,16.2,266.6,17.3z"/>
<path d="M330.2,175.7c0,1.7-0.4,3.3-1.2,4.8c-0.5,0.9-1.1,1.8-1.8,2.6c-6,7.1-14,12.3-23,14.8c-0.5,0.1-1,0.2-1.4,0.1
	c-0.1,0-0.4-0.5-0.3-0.6c0.2-0.3,0.5-0.6,0.9-0.9c1.6-1.1,2.9-2.5,4.1-4c1.3-1.8,2.3-3.7,3-5.8c0.9-2.7,1.6-5.4,2.1-8.2
	c0.4-1.9,0.8-3.7,1.3-5.6c0.3-1,0.7-2,1.2-2.9c0.8-1.5,2.3-2.4,3.9-2.6c2.6-0.4,5.3,0.1,7.5,1.6C328.7,170.5,330.1,173,330.2,175.7z
	"/>
<path d="M349.7,379c4.2,5.6,8.3,11.2,12.4,16.8c0.2,0.4,0.5,0.8,0.6,1.2c-0.3,0.4-0.7,0.7-1.1,1.1c-2.4,1.8-4.9,3.6-7.4,5.4
	c-2,1.4-4.5,2.2-7,2.2c-6.3-0.1-11.3-5.2-11.2-11.5c0-0.1,0-0.2,0-0.2c0-3.2,1.5-6.2,4-8.1c2.9-2.3,5.9-4.4,8.9-6.5
	C349.2,379.1,349.4,379.1,349.7,379z M353.2,396.1c-0.8-1.4-1.7-2.7-2.8-4c-0.9-1.4-2-2.7-3.1-4c-1.2,0.6-2.3,1.5-3.2,2.5
	c-1.3,1.4-1.5,3.5-0.6,5.1c1.2,2.5,3.7,3.8,6.1,3C351,398.2,352.3,397.3,353.2,396.1L353.2,396.1z"/>
<path d="M198.3,428.3c-0.8-1.3-1.4-2.8-1.8-4.3c0.4-0.3,0.8-0.6,1.3-0.8c1.7-0.7,3.6-0.9,5.4-0.6c2.5,0.3,4.5,2,5.3,4.4
	c0.4,1,0.6,2.2,0.9,3.3c0.1,0.4,0.4,0.5,1,0.4c0.6-2.1,0.4-4.5,0.8-6.7c2.2-0.5,4.5-0.4,6.6,0.3c0.1,0.5,0.1,1.1,0.1,1.6
	c-0.1,2.8-0.3,5.6-0.5,8.5c-0.2,3.5-0.5,7-0.8,10.6c0,0.4-0.1,0.7-0.2,1.1c-0.4,0.2-0.8,0.3-1.2,0.3c-3.7-0.1-7.5-0.4-11.2-0.9
	c-2.6-0.3-4.8-2.2-5.6-4.6c-0.7-1.8-0.7-3.8-0.1-5.6c0.5-1.5,1.5-2.8,2.9-3.5l1.4-0.8c0.1-2.1-0.8-3-2.7-2.8
	C199.4,428,199,428.2,198.3,428.3z M209.9,436.1c-0.9-0.5-1.9-0.6-2.9-0.5c-1,0-1.9,0.8-1.9,1.8c0,0,0,0,0,0.1
	c-0.1,1.1,0.6,2,1.7,2.2c0,0,0.1,0,0.1,0c0.9,0.2,1.9,0.1,2.8-0.1C210,438.5,210.1,437.3,209.9,436.1L209.9,436.1z"/>
<path d="M119,420.8c-2-0.8-3.9-1.8-5.8-2.9c0-0.3,0.1-0.7,0.2-1c3-6,6.1-12,9.1-18c0.2-0.3,0.3-0.5,0.6-0.8c0.4,0.1,0.8,0.2,1.2,0.3
	c0.8,0.4,1.5,0.8,2.3,1.1c0.9,0.4,1.6,1.3,1.6,2.3c0.4,3,0.8,6,1.3,9c0,0.3,0.1,0.5,0.2,0.8c0.5,0.2,0.7-0.2,0.8-0.5
	c0.9-1.8,1.9-3.6,2.8-5.5c0.3-0.6,0.7-1.2,1-1.8c2.2,0.6,4.2,1.5,6,2.8c0,0.3-0.1,0.6-0.3,0.9c-3,6-6.1,12-9.1,18
	c-0.1,0.2-0.3,0.5-0.5,0.8c-1.7-0.3-3.1-1.4-4.7-2.1c-0.9-3.7-1.1-7.6-1.9-11.4c-0.5-0.1-0.6,0.3-0.8,0.6c-1,1.9-1.9,3.8-2.9,5.7
	C119.7,419.6,119.3,420.1,119,420.8z"/>
<path d="M434.8,154.3c0.6,1.4,1.1,2.9,1.4,4.4c0.1,0.5-0.1,1-0.5,1.4l-2.3,2.8c-1.3,1.6-2.6,3.2-3.9,4.8c-0.3,0.4-0.5,0.7-0.7,1.1
	l9-2.4c1.1,1.9,1.8,4.1,2,6.3c-0.6,0.5-1.3,0.8-2.1,0.9c-4.6,1.3-9.3,2.6-13.9,3.9c-1.4,0.4-2.7,0.8-4.1,1.1
	c-0.4,0.1-0.9,0.1-1.3,0.1c-0.6-1.6-1.1-3.2-1.4-4.8c0.4-0.5,0.7-1,1.1-1.5c1.7-2,3.3-4,5-6.1c0.4-0.5,0.9-1.1,1.4-1.9
	c-0.3,0-0.7,0-1,0l-6.1,1.7l-2,0.5c-1.1-1.9-1.8-4.1-2-6.3c0.3-0.2,0.7-0.3,1.1-0.5c6.3-1.8,12.7-3.5,19-5.3
	C434,154.3,434.4,154.3,434.8,154.3z"/>
<path d="M147.2,36.6c-0.2-0.3-0.4-0.7-0.5-1c-1.9-5-6.4-18.2-6.7-20c0.4-0.2,0.8-0.4,1.3-0.6c2.8-1,5.6-2,8.4-2.9
	c3.2-1.2,6.7-0.8,9.6,0.9c3.6,2.1,5.7,6.1,5.4,10.3c-0.2,4.4-2.5,7.5-6.4,9.5c-0.7,0.3-1.4,0.6-2.2,0.8c-2.3,0.8-4.7,1.6-7,2.4
	C148.5,36.2,147.9,36.4,147.2,36.6z M148.4,19c0.8,3.3,2,6.6,3.4,9.7c1.3-0.2,2.6-0.7,3.7-1.3c1.7-0.9,2.6-2.7,2.4-4.6
	c-0.2-2.2-1.1-4.1-3.4-4.9c-0.7-0.3-1.4-0.3-2.1-0.3C151.1,17.8,149.7,18.3,148.4,19z"/>
<path d="M322.5,398.5c6.4-0.3,11.2,5.6,11.5,10.8c0.3,3.9-1.4,7.7-4.5,10c-2.3,1.8-5.1,2.9-8,3c-3.5,0.2-6.8-1.3-9-4
	c-4.8-5.9-3.5-13.3,2.3-17.3C317,399.4,319.7,398.5,322.5,398.5z M327,410.8c0-1.8-0.7-3.5-2.1-4.7c-2.1-1.8-5.3-1.5-7.1,0.6
	c-0.4,0.4-0.7,0.9-0.9,1.5c-0.9,2.4,0.8,6.4,3.6,7.3c0.5,0.2,1.1,0.3,1.6,0.4C324.6,415.6,327.1,413.8,327,410.8z"/>
<path d="M39.4,307l-19.8,7.9c-0.2,0-0.5,0-0.7,0c-0.2-0.3-0.3-0.5-0.5-0.8c-1.2-3-2.4-5.9-3.5-8.9c-0.9-2.2-1-4.6-0.4-6.8
	c1.5-6,7.6-9.6,13.6-8c2.9,0.8,5.4,2.7,6.9,5.3c0.2,0.4,0.4,0.7,0.6,1.1c1.2,3.1,2.5,6.2,3.7,9.2C39.3,306.3,39.4,306.6,39.4,307z
	 M31.4,302.5c-0.3-1.3-0.9-2.5-1.5-3.6c-1-1.6-2.8-2.5-4.7-2.2c-2.5,0.2-4.5,2-4.9,4.5c-0.1,0.8,0.1,1.7,0.3,2.5
	c0.2,1,0.6,2,1.3,2.8C25.2,305.4,28.4,304.1,31.4,302.5z"/>
<path d="M142,423.9c-0.2-5.4,3.4-10.1,8.6-11.5c5.3-1.2,10.9,0.9,14,5.4c4.3,6.8,0,16-7.3,17.4c-4.8,0.8-9.6-0.9-12.8-4.5
	C142.9,428.8,142,426.4,142,423.9z M154.1,418.2c-1.4,0-2.7,0.6-3.5,1.6c-1.2,1.3-1.8,3.1-1.7,4.9c0.1,2,1.4,3.7,3.3,4.3
	c1.8,0.8,3.9,0.4,5.3-1c1-1,1.6-2.2,1.8-3.5c0.6-2.8-1.1-5.5-3.8-6.1C155,418.2,154.6,418.2,154.1,418.2L154.1,418.2z"/>
<path d="M27.7,272.8c0.1,5.5-3.8,10.2-9.1,11.2c-5.2,1.2-10.4-1.4-12.7-6.2c-1.2-2.5-1.7-5.3-1.3-8c1-6.3,7-10.5,13.2-9.5
	c4.2,0.7,7.7,3.7,9,7.8C27.4,269.6,27.7,271.2,27.7,272.8z M15.7,277.5c1.1,0,2.3-0.3,3.3-0.8c1.9-0.9,3-3,2.7-5.1
	c-0.2-2.2-1.7-4-3.9-4.5c-1.5-0.4-3.1-0.2-4.5,0.6c-2.5,1.3-3.6,4.4-2.3,6.9C11.9,276.4,13.8,277.5,15.7,277.5L15.7,277.5z"/>
<path d="M66.4,75.3c-0.5-3.3-1.6-6.3-2.3-9.3c1.3-1.8,2.9-3.4,4.7-4.7c0.8,0.3,0.8,1.1,1,1.8c0.7,2.6,1.4,5.2,2.1,7.8
	c0.2,0.5,0.3,1.1,0.6,1.7c1.8,0.6,3.6,1.3,5.4,1.9c1.5,0.5,1.9,0.3,2.8-1c0.1-0.1,0.1-0.3,0.2-0.4c0.1-0.1,0.2-0.2,0.4-0.3
	c1.5,0.4,3,0.9,4.3,1.7c-0.1,0.4-0.2,0.9-0.3,1.2c-0.6,1.5-1.6,2.9-2.9,3.8c-1.7,1.5-4,2-6.2,1.3c-1.4-0.4-2.8-1-4.2-1.5
	c-0.7-0.3-1.3-0.5-2.1-0.6c2.1,2.5,4.4,4.2,6.3,6.4c-1.2,1.8-2.8,3.4-4.5,4.8c-1.5-1-14.7-13.8-15.8-15.4c1.3-1.6,2.9-3,4.4-4.7
	c0.4,0.3,0.8,0.6,1.2,0.9c1.3,1.3,2.7,2.6,4,3.8C65.7,74.8,66.1,75.1,66.4,75.3z"/>
<path d="M39.8,109.8c-1.5-2.8-3-5.6-4.5-8.4l3.1-4.9l0.3-0.6c1.1,0.1,1.3,0.7,1.6,1.3c1.2,2.3,2.3,4.7,3.5,7c0.3,0.6,0.7,1.2,1,1.9
	c1.8,0.3,3.5,0.6,5.2,0.8s2.4-0.1,3.1-1.8c0.1-0.2,0.2-0.4,0.3-0.6c1.5,0,3,0.2,4.5,0.6c0.3,0.7,0.2,1.5-0.1,2.2
	c-0.4,1.9-1.5,3.5-3,4.7c-1.8,1.5-4,1.6-6.3,1.3c-1.1-0.1-2.1-0.4-3.1-0.6c-0.5,0-1,0-1.4,0c0.7,0.7,1.5,1.3,2.3,1.8
	c0.8,0.6,1.7,1.1,2.5,1.6l2.2,1.5c-0.8,2.1-2,4-3.5,5.7c-0.2,0-0.4-0.1-0.6-0.2c-5.9-3.7-11.7-7.4-17.6-11.1
	c-0.2-0.2-0.4-0.4-0.5-0.6c1.1-1.8,2.2-3.6,3.5-5.4C35,107.1,37.1,108.9,39.8,109.8z"/>
<path d="M225.1,424.1c0.7-0.2,1.4-0.3,2.1-0.3c4.6-0.1,9.2-0.8,13.9-0.6c0.1,0.5,0.3,1,0.4,1.5c0.1,0.5,0.1,1,0.1,1.5
	c0.3,5.3,0.6,10.6,0.9,15.9c0,1,0,2.1,0,3c-0.6,0.5-1.4,0.7-2.1,0.7c-4,0.2-8,0.4-12.1,0.5c-0.6,0-1.3,0-2-0.1
	c-0.4-1.8-0.6-3.6-0.4-5.4c0.8-0.5,1.7-0.7,2.6-0.6c1.8-0.1,3.5-0.2,5.3-0.3c0.4-0.1,0.8-0.1,1.2-0.3v-2c-2.7-0.5-5.3,0.6-7.8,0
	c-0.6-1.6-0.7-3.3-0.3-4.9c0.6-0.4,1.4-0.6,2.2-0.5c1.2-0.1,2.4-0.1,3.6-0.1c0.4,0,0.9,0,1.3-0.1c0.5,0,0.9-0.5,0.8-1c0,0,0,0,0,0
	c0-0.4-0.1-0.7-0.2-1.1c-0.5-0.1-1-0.2-1.5-0.2c-2.1,0.1-4.2,0.2-6.4,0.3c-1.1,0-1.5-0.2-1.6-1.2s-0.1-2.3-0.1-3.4
	C224.9,424.9,225,424.5,225.1,424.1z"/>
<path d="M392.5,78.4c1.5,1.8,2.8,3.4,4,5.2c-0.5,0.4-0.9,0.8-1.3,1.2c-2.8,2.2-5.7,4.4-8.5,6.7c-0.6,0.4-1.1,0.9-1.5,1.4
	c-0.8,0.9-0.8,2.4,0,3.3c0.8,1.1,2.2,1.4,3.4,0.7c0.6-0.3,1.2-0.7,1.8-1.2l8.2-6.4c0.4-0.3,0.9-0.7,1.4-1c0.2,0.1,0.5,0.1,0.6,0.3
	c1.2,1.5,2.5,3.1,3.7,4.7c-0.3,0.4-0.6,0.7-0.9,1c-3.2,2.5-6.5,5-9.7,7.6c-1.9,1.6-4.5,2.3-6.9,1.9c-0.8-0.1-1.6-0.4-2.4-0.8
	c-3.4-1.6-5.7-4.9-6.1-8.6c-0.3-2.2,0.4-4.4,1.9-6.1c0.5-0.6,1.2-1.2,1.8-1.8c3.1-2.5,6.2-4.9,9.4-7.3
	C391.6,79,391.9,78.8,392.5,78.4z"/>
<path d="M295.2,12l5.9,2.3c0.2,0.6,0.1,1.2-0.2,1.8c-1.3,3.3-2.6,6.6-3.9,9.9c-0.2,0.6-0.5,1.2-0.6,1.8c-0.5,1.3,0.2,2.8,1.5,3.3
	c1.4,0.6,3,0,3.6-1.4c0.3-0.6,0.5-1.2,0.8-1.8c1.3-3.2,2.5-6.5,3.8-9.7c0.2-0.5,0.5-1,0.7-1.5c2.2,0.5,4.3,1.4,6.2,2.5
	c-0.1,0.4-0.2,0.8-0.4,1.2l-4.4,11c-0.2,0.4-0.3,0.8-0.5,1.2c-1.5,3.2-4.8,5.1-8.3,4.8c-2.5-0.1-4.9-1.1-6.8-2.7
	c-2.8-2.2-3.9-6-2.7-9.4c0.2-0.6,0.4-1.2,0.6-1.8c1.2-3.2,2.5-6.3,3.7-9.5C294.5,13.4,294.8,12.8,295.2,12z"/>
<path d="M439.3,231h-2c-0.8,2.5-0.2,5.2-0.7,7.8c-1.6,0.3-3.2,0.3-4.8,0c-0.4-0.5-0.6-1.2-0.4-1.9c0.1-1.5,0.2-3,0.2-4.4
	c0-0.5,0-1.1-0.1-1.6c-0.2-0.1-0.4-0.2-0.7-0.3c-0.4,0-0.8,0-1.3,0c-0.1,0.4-0.2,0.8-0.3,1.3c-0.1,2-0.2,4.1-0.3,6.1
	c0,0.5-0.1,1.1-0.2,1.7c-1.9,0.3-3.7,0.3-5.6,0c-0.1-0.4-0.2-0.8-0.3-1.2c0.2-4.4,0.4-8.9,0.6-13.3c0.1-0.5,0.1-1,0.3-1.5
	c1.5-0.4,3,0,4.5,0s3,0,4.5,0.1s2.8,0.2,4.2,0.2s3,0.1,4.5,0.1s3-0.2,4.5,0.4c0.1,0.4,0.1,0.8,0.2,1.2c0,4.9-0.3,9.7-0.6,14.4
	c-0.5,0.5-1.3,0.7-2,0.5c-0.6,0-1.3,0-1.9-0.1c-0.6-0.1-1.3-0.2-1.9-0.3c-0.4-1.6-0.1-3.2-0.1-4.7S439.7,232.5,439.3,231z"/>
<path d="M55.9,336.2c1.7,1.7,11.5,14.7,12.3,16.3c-0.8,0.9-1.7,1.6-2.7,2.2c-0.2,0.1-0.5,0.2-0.8,0.2c-0.6,0-1.1,0-1.7,0l-11.7-0.7
	c-0.6,0-1.1,0-1.9,0c0.1,0.3,0.3,0.7,0.5,1c1.2,1.6,2.5,3.3,3.7,4.9c0.3,0.5,0.6,0.9,1,1.4c-0.2,0.3-0.5,0.5-0.8,0.8
	c-1.2,0.9-2.4,1.8-3.6,2.7c-0.3-0.2-0.6-0.5-0.8-0.8c-3.3-4.3-6.6-8.7-9.9-13c-0.2-0.3-0.4-0.6-0.6-0.9c0.8-0.9,1.8-1.7,2.8-2.3
	c0.4-0.2,0.9-0.3,1.4-0.3c3.2,0.2,6.3,0.4,9.5,0.6c1.3,0.1,2.7,0.1,4,0.2c0.3,0,0.5,0,0.8-0.1c0.3-0.6-0.1-0.9-0.4-1.2
	c-1.5-2-3-4-4.5-5.9c-0.4-0.5-0.7-1-1.1-1.6C52.8,338.4,54.3,337.2,55.9,336.2z"/>
<path d="M404.9,138.4c1.3-0.9,16.9-7.5,20.1-8.6c0.2,0.2,0.4,0.3,0.5,0.6c1.9,4.5,3.8,9.1,5.7,13.7c0,0.1,0,0.3,0,0.4
	c-1.6,1.1-3.4,1.9-5.3,2.2c-1.3-2.6-2.2-5.4-3.5-8.1c-0.9,0-1.7,0.3-2.4,0.8c0.9,2.5,2.1,4.9,3,7.3c-1.5,0.9-3,1.5-4.6,2
	c-0.7-1.1-1.3-2.3-1.7-3.6c-0.5-1.1-1-2.3-1.5-3.5c-0.8-0.1-1.7,0.1-2.3,0.7c0.4,1.5,1,3,1.6,4.3c0.5,1.4,1.1,2.7,1.7,4
	c-1.5,1.2-3.4,1.9-5.3,2.2C408.7,148.2,406.7,143.4,404.9,138.4z"/>
<path d="M169.8,6.2c5.1-1,10-2.1,14.9-3.1c0.3,0,0.6,0,0.9,0.1c0.5,1.7,0.9,3.5,1,5.3c-0.4,0.2-0.9,0.4-1.4,0.5
	c-2.1,0.5-4.3,0.9-6.4,1.3c-0.3,0.1-0.7,0.2-0.9,0.3c-0.2,0.8-0.1,1.7,0.3,2.4c2.6-0.1,5-1,7.7-1.3c0.7,1.4,1.1,3,1.2,4.6
	c-0.4,0.5-0.9,0.8-1.5,0.8c-1.6,0.3-3.2,0.6-4.8,1c-0.5,0.1-0.9,0.3-1.3,0.5c-0.1,0.8,0.1,1.7,0.5,2.4l4.5-0.9
	c1.4-0.4,2.9-0.7,4.4-0.7c0.5,1.7,0.9,3.5,1.1,5.2c-0.2,0.2-0.5,0.3-0.8,0.4c-4.9,1-9.7,2-14.6,2.9c-0.1,0-0.3,0-0.4-0.1
	c-0.2-0.2-0.3-0.5-0.4-0.8c-1.3-6.4-2.7-12.9-4-19.3C170,7.3,169.9,6.9,169.8,6.2z"/>
<path d="M325.6,32l-1.2,2.3l6.9,3.9c-0.4,1.6-1.2,3.2-2.3,4.5c-0.4-0.1-0.7-0.2-1.1-0.4c-1.6-0.8-3.1-1.7-4.7-2.5
	c-0.5-0.2-0.9-0.4-1.4-0.6l-1.1,2c0.3,0.3,0.6,0.5,1,0.8c1.8,1,3.6,2,5.4,3c0.5,0.3,1,0.7,1.7,1.1c-0.8,1.7-1.7,3.3-2.7,4.8
	c-4.9-2.3-9.6-4.8-14.2-7.7c0.7-1.7,1.6-3.3,2.5-4.8c0.9-1.6,1.8-3.2,2.6-4.8c0.9-1.6,1.7-3.2,2.6-4.8c0.8-1.7,1.8-3.3,2.8-4.9
	c0.3,0.1,0.6,0.1,0.9,0.3l13.1,7.2c-0.5,1.8-1.4,3.5-2.6,5c-0.4-0.1-0.8-0.2-1.1-0.4c-1.7-0.9-3.4-1.8-5-2.7L325.6,32z"/>
<path d="M401.5,356.8c-2.4,3.3-5,6.5-7.8,9.5c-2,2.2-5.3,2.9-8,1.6c-3-1-5.1-3.6-5.4-6.7c-0.1-1.4,0.2-2.9,0.9-4.1
	c0.6-0.9,1.2-1.8,1.8-2.6c0.5-0.7,1-1.3,1.6-2.1c-0.2-0.4-0.5-0.7-0.8-1c-1-0.8-2-1.6-2.9-2.4c-0.4-0.3-0.7-0.6-1-1
	c1.2-1.9,2.6-3.7,4.3-5.2c0.3,0.2,0.7,0.4,1,0.6c5.1,4.1,10.1,8.2,15.2,12.3C400.6,355.9,401,356.3,401.5,356.8z M389.2,356
	c-0.7,0.9-1.4,1.6-1.9,2.5c-0.5,0.7-0.3,1.7,0.4,2.3c0.7,0.7,1.8,0.7,2.5,0.1c0.8-0.7,1.5-1.5,1.8-2.5
	C391.2,357.4,390.3,356.6,389.2,356L389.2,356z"/>
<path d="M260.2,426.9c0.1-2.3-0.8-4.3-0.7-6.4c2.1-0.7,4.3-1.1,6.5-1.2c0.2,0.5,0.4,1.1,0.6,1.6c1.1,6.3,2.3,12.5,3.3,18.8
	c0,0.5,0,1,0,1.5c-0.3,0.2-0.7,0.3-1,0.4c-3,0.6-6.1,1.1-9.2,1.6c-0.7,0.1-1.4,0.1-2.1,0.1c-3.5,0.2-6.9-2.2-7.7-6.5
	c-0.3-1.4-0.2-2.8,0.2-4.2c0.9-2.4,3-4.2,5.5-4.8c0.9-0.2,1.8-0.3,2.7-0.5C259.1,427.3,259.6,427.1,260.2,426.9z M261.8,436.5
	c0.3-1.3,0-2.6-0.7-3.7c-0.2,0-0.5,0-0.7,0c-0.6,0.1-1.3,0.2-1.9,0.4c-1.1,0.2-1.8,1.3-1.6,2.4c0.2,1.1,1.3,1.8,2.3,1.6
	c0,0,0,0,0.1,0C260.1,436.9,260.9,436.8,261.8,436.5L261.8,436.5z"/>
<path d="M353.8,375.5c0.5-0.9,1.2-1.6,2-2.3c0.7-0.8,1.5-1.5,2.3-2.2c0.5-0.6,1.3-0.7,1.9-0.3c0.8,0.4,1.5,0.7,2.3,1
	c1.8-1.2,3.3-2.6,4.6-4.3l-1.3-3.2c1.4-2,3.1-3.6,5.1-4.9c0.3,0.5,0.6,0.9,0.8,1.4c2.7,6.2,5.3,12.5,8,18.7c0.1,0.3,0.3,0.7,0.4,1
	c0.2,0.5,0.1,1-0.3,1.4c-1.2,1.2-2.4,2.4-3.7,3.6c-0.6-0.1-1.1-0.3-1.7-0.5c-6.3-2.8-12.6-5.7-18.9-8.6
	C354.8,376.1,354.4,375.8,353.8,375.5z M367.7,375c1.9,1.4,2.8,1.8,4.1,1.9c-0.4-1.4-1-2.8-1.9-4C369,373.4,368.3,374.1,367.7,375
	L367.7,375z"/>
<path d="M428.1,310.1c-1.9,0.4-16.4,0.4-22.4,0.1c-0.5,0-1-0.2-1.5-0.3c0-0.8,0.2-1.6,0.5-2.3c0.3-0.7,0.6-1.5,0.9-2.2
	s0.6-1.4,1-2.2h3.6c1.2-1.8,1.7-3.8,2.6-5.6c-0.4-0.8-1-1.4-1.8-1.9c-0.7-0.5-1-1.5-0.6-2.2c0.6-1.4,1.1-2.8,1.7-4.1
	c0.2-0.3,0.3-0.6,0.5-0.9c0.7,0.2,1.3,0.6,1.8,1.2c3.3,3,6.5,6.1,9.7,9.2c1.6,1.5,3.2,3,4.8,4.5c0.4,0.4,0.8,0.8,1.2,1.3
	C429.7,306.5,429,308.4,428.1,310.1z M421.5,304.4c-1-1.3-2.3-2.5-3.7-3.4c-0.8,0.8-1.2,1.9-1.1,3
	C418.3,304.3,419.9,304.4,421.5,304.4z"/>
<path d="M104.7,386c-0.2,1.1-0.5,2.3-0.7,3.6c1.5,1.5,3.4,2.4,5.1,3.7l3.3-2.1c1.9,1.1,3.7,2.4,5.6,3.8c-0.2,0.3-0.5,0.6-0.8,0.8
	c-6,4.1-12,8.2-18.1,12.3c-0.3,0.1-0.5,0.3-0.8,0.4c-1.7-0.9-3.3-2-4.8-3.3c0.1-0.6,0.1-1.2,0.3-1.8c1.5-6.6,3-13.2,4.6-19.8
	c0.1-0.5,0.3-0.9,0.5-1.5c1.1,0.4,2.2,1,3.1,1.8C102.9,384.5,103.8,385.2,104.7,386z M101.9,395c-0.7,1.7-1.2,3.5-1.4,5.3
	c1.7-0.8,3.2-1.9,4.5-3.1L101.9,395z"/>
<path d="M207.8,0.6c1,1.4,8.3,16,10.2,20.4c0.1,0.3,0.2,0.7,0.3,1c-2.3,0.5-4.6,0.7-6.9,0.6l-1.8-3.2c-1,0-1.9-0.1-2.9,0
	c-1.1,0.1-2.2,0.3-3.5,0.4l-1.2,3.5c-2.2,0.5-4.5,0.6-6.8,0.5c0-0.3,0.1-0.7,0.1-1c2-6.8,4.1-13.7,6.1-20.5c0.2-0.4,0.3-0.8,0.5-1.2
	C204.1,0.9,206,0.4,207.8,0.6z M205.6,8.9c-0.5,1.7-1.4,3.2-1.4,5.1c1.2,0.2,2.5,0,3.6-0.5C207.3,11.9,206.6,10.3,205.6,8.9z"/>
<path d="M53.3,332.2c-0.5,0.2-1,0.3-1.5,0.4l-21.2,3.1c-0.3,0-0.7,0-1-0.1l-2.8-4.8c1-1.7,13.4-17.2,14.9-18.6
	c1,0.7,1.3,1.9,1.9,2.9s1.1,2,1.7,3l-2.3,3c0.3,1,0.8,2,1.4,2.8c0.5,0.9,1.1,1.8,1.7,2.8l3.8-0.5C51.2,328.2,52.3,330.1,53.3,332.2z
	 M38.7,325.1c-1.2,1.3-2.2,2.5-3.2,3.6c-0.1,0.1,0,0.3-0.1,0.5c0.9,0.4,1.8-0.1,2.6-0.2c0.9,0.1,1.9-0.2,2.6-0.8
	C40.1,327.1,39.4,326.1,38.7,325.1z"/>
<path d="M35.7,148.4h-3.6c-0.9,2-1.7,4-2.3,6l2.7,2.5c-0.4,2.3-1.2,4.4-2.4,6.4c-0.3-0.2-0.6-0.4-0.9-0.6c-5.6-5-11.2-10-16.9-15
	c0.7-1.9,1.4-3.6,2-5.4c2-0.2,4-0.3,6-0.2c2-0.1,4-0.1,5.9-0.2s4-0.1,6-0.2c2-0.1,3.9-0.1,5.9,0.1C37.6,144.1,36.8,146.3,35.7,148.4
	z M20.6,147.7c1.4,1.3,2.8,2.5,4.3,3.6c0.7-1.1,1.1-2.4,1.4-3.7c-1.6-0.1-3-0.1-4.5-0.1C21.4,147.6,21,147.6,20.6,147.7L20.6,147.7z
	"/>
<path d="M290.4,429.9c1.3-1.3,2.7-2.3,4.3-3.2c0.5,0.3,0.9,0.6,1.3,0.8c0.7,0.4,1.7,0.4,2.4-0.1c0.4-0.3,0.8-0.6,0.8-1.2
	c0-0.5-0.5-1-1-1c-0.8-0.1-1.7-0.2-2.5-0.2c-1.4,0-2.8,0-4.2-0.1c-3-0.2-5.5-2.5-6-5.5c-0.3-1.5,0-3,0.8-4.3
	c0.6-0.9,1.3-1.7,2.1-2.3c2.1-1.7,4.7-2.7,7.4-2.9c2.8-0.3,5.4,1,7,3.3c0.2,0.3,0.3,0.7,0.5,1c-1.3,1.5-3,2.2-4.5,3.2
	c-0.6-0.5-1.1-0.9-1.6-1.2c-1.5-0.8-3.5-0.5-4.6,0.8c-0.4,0.4-0.4,1.1,0,1.5c0.1,0.1,0.2,0.2,0.4,0.2c0.4,0.1,0.8,0.2,1.3,0.2
	c1.1,0,2.3,0,3.4,0c1.2,0,2.4,0.2,3.6,0.4c3.3,0.7,5.5,4,4.8,7.3c-0.1,0.5-0.3,1-0.5,1.5c-0.4,1-1.1,1.8-1.9,2.5
	c-1.7,1.5-3.8,2.5-6.1,2.8c-2.7,0.4-5.3-0.7-7-2.8c-0.1-0.1-0.1-0.2-0.1-0.3C290.4,430.2,290.4,430,290.4,429.9z"/>
<path d="M435.3,260c0.6-0.3,1.2-0.6,1.7-1c0.8-0.7,1.1-1.7,0.7-2.7c-0.2-0.5-0.7-0.8-1.2-0.7c-0.2,0.1-0.3,0.2-0.5,0.3
	c-0.4,0.5-0.8,1-1.1,1.6c-0.7,1.2-1.3,2.4-2,3.5c-0.6,0.9-1.4,1.8-2.2,2.5c-2.8,2.2-6.7,1.7-8.9-1.1c-0.3-0.3-0.5-0.7-0.7-1.1
	c-0.4-0.9-0.7-1.8-0.8-2.8c-0.5-2.9,0.1-5.9,1.6-8.4c1.2-2.3,3.5-3.7,6.1-3.7c0.3,0,0.6,0.1,0.9,0.1c0.3,1.7,0.5,3.5,0.4,5.3
	c-0.5,0.2-1,0.4-1.4,0.6c-1.7,0.6-2.5,2.9-2.1,4.4c0.1,0.4,0.4,0.7,0.8,0.9c0.5,0.2,1,0.1,1.3-0.4c0.3-0.4,0.6-0.8,0.8-1.2
	c0.6-1,1-2,1.7-3c0.6-1,1.2-1.9,2-2.7c2.3-2.5,6.2-2.6,8.7-0.3c0.4,0.4,0.8,0.8,1,1.3c0.6,1,1,2,1.2,3.1c0.5,2.4,0.1,4.9-1.1,7
	c-1.2,2.2-3.4,3.6-5.8,3.8c-0.8-0.8-0.5-1.8-0.7-2.6S435.4,261,435.3,260z"/>
<path d="M177.5,434.4c0.2,0.6,0.5,1.1,0.9,1.6c0.5,0.8,1.5,1.2,2.4,1.1c0.5,0,1-0.4,1.1-0.9c0.1-0.4,0-0.9-0.4-1.1
	c-0.4-0.4-0.9-0.7-1.4-1c-0.8-0.5-1.7-1-2.5-1.5c-1-0.7-1.9-1.4-2.8-2.3c-2.4-2.5-2.3-6.5,0.2-8.9c0.7-0.7,1.5-1.2,2.4-1.5
	c3.8-1.3,8.1-0.5,11.3,2c2,1.4,3.1,3.9,2.7,6.3c-0.8,0.4-1.8,0.6-2.7,0.5c-0.8,0-1.7,0-2.6,0c-0.2-0.6-0.5-1.1-0.7-1.6
	c-0.8-1.7-2.8-2.6-4.6-2.1c-0.6,0.2-0.9,0.8-0.8,1.4c0,0.1,0.1,0.2,0.2,0.3c0.3,0.4,0.7,0.7,1.1,1c1,0.6,2.1,1.2,3.1,1.9
	c1,0.6,2,1.4,2.8,2.2c2.3,2.3,2.3,6.1,0,8.5c-0.3,0.3-0.6,0.5-0.9,0.8c-0.7,0.5-1.6,0.9-2.5,1.2c-2.5,0.6-5.1,0.3-7.4-0.8
	c-2-1-3.5-2.8-4-5c-0.1-0.5-0.1-1,0-1.5C174,434.4,175.8,434.8,177.5,434.4z"/>
<path d="M240.4,6.2c-1.7,0.6-3.4,1-5.2,1.2c-0.3-0.5-0.7-1-1.1-1.5c-0.7-0.7-1.8-0.9-2.8-0.5c-0.6,0.2-0.9,0.8-0.7,1.4
	c0.1,0.2,0.2,0.4,0.4,0.6c0.5,0.3,0.9,0.6,1.5,0.8c1,0.4,2,0.8,2.9,1.2c1.1,0.6,2.2,1.2,3.3,2c2.6,2.3,3,6.2,0.7,8.9
	c-0.5,0.6-1.1,1.1-1.9,1.5c-2.2,1.1-4.7,1.5-7.2,1.1c-1.6-0.2-3.1-0.7-4.4-1.5c-2.1-1.2-3.4-3.4-3.6-5.8c1.7-0.6,3.5-0.9,5.3-1.1
	l0.5,1c0.9,1.8,2.9,2.6,4.8,2c0.6-0.1,1-0.6,1.1-1.1c0-0.5-0.2-1-0.7-1.3c-0.3-0.2-0.7-0.4-1.1-0.6c-1-0.5-2.1-0.8-3.1-1.3
	c-1-0.4-2.1-1-3-1.6c-3.8-2.8-2.9-7.2-0.4-9.6c2.9-2.7,9.1-2.7,11.9-0.3C239.1,2.8,240.1,4.4,240.4,6.2z"/>
<path d="M5,237.1c0.8,1.5,1.5,3.1,2,4.8c-0.5,0.4-0.8,0.7-1.2,1.1c-0.8,0.9-0.9,2.2-0.2,3.1c0.3,0.5,1,0.7,1.5,0.4
	c0.1-0.1,0.2-0.2,0.3-0.3c0.3-0.5,0.5-1,0.7-1.5c0.3-1.1,0.5-2.4,0.9-3.5c0.4-1.1,0.8-2.2,1.4-3.3c1.9-3,5.9-3.8,8.8-1.9
	c0.6,0.4,1.1,0.8,1.5,1.4c1.3,1.8,2,3.9,2.2,6.1c0.2,1.6,0.1,3.1-0.4,4.6c-0.7,2.5-2.7,4.5-5.2,5.1c-0.2,0-0.3,0-0.5,0
	c-0.7-1.6-1.3-3.2-1.8-4.9c0.5-0.4,0.9-0.6,1.3-0.9c1.4-1.3,1.7-3.3,0.8-5c-0.3-0.6-1-0.9-1.7-0.6c-0.2,0.1-0.5,0.3-0.6,0.6
	c-0.2,0.4-0.4,0.8-0.5,1.2c-0.3,1.1-0.5,2.2-0.9,3.3c-0.3,1.1-0.7,2.3-1.2,3.3c-1.6,3-5.3,4.1-8.3,2.5c-0.4-0.2-0.8-0.5-1.2-0.8
	c-1.5-1.3-2.5-3.1-2.8-5.1c-0.2-1.2-0.2-2.4-0.1-3.6c0.2-2.7,2-5,4.5-6C4.7,237.1,4.9,237.1,5,237.1z"/>
<path d="M368,53.9l-3.6,4.4c-2.7-1.6-4.8-3.8-7.3-5.5c-0.7,0.5-1.2,1.1-1.6,1.8c1.8,2,4.1,3.2,6,5.1c-0.8,1.5-1.8,2.8-3,4
	c-2.3-1.3-4.1-3.2-6.3-4.7c-0.4,0.4-0.8,0.7-1.1,1.1c-1.2,1.4-2.3,2.9-3.5,4.3c-0.3,0.4-0.6,0.7-1,1c-1.8-1.3-3.4-2.7-5-4.2
	c0.1-0.3,0.3-0.6,0.5-0.9c4.2-5.3,8.4-10.5,12.5-15.8c0.2-0.2,0.3-0.5,0.5-0.7c1.6,0.9,3,2,4.4,3.2c1.4,1.1,2.8,2.2,4.1,3.3
	L368,53.9z"/>
<path d="M409.4,100.9c0.6,0.7,1.1,1.5,1.5,2.3c0.6,1,1.1,2,1.7,2.9c0.4,0.6,0.4,1.4,0,2c-0.9,1.6-1.8,3.2-2.6,4.9
	c-0.3,0.5-0.4,1-0.7,1.6c0.9,0.3,1.8,0.5,2.8,0.4c0.9,0.1,1.8,0.1,2.8,0.1l2.7,0.1c1.5,1.9,2.8,4,3.8,6.3c-0.3,0.2-0.6,0.4-1,0.5
	c-0.5,0.1-1,0.1-1.5,0c-3.8-0.4-7.6-0.7-11.4-1.1c-1-0.2-2,0-2.8,0.6c-1.7,1.1-3.4,2-5.1,3c-0.5,0.3-1,0.5-1.5,0.7
	c-0.3-0.3-0.5-0.6-0.7-0.9c-0.9-1.5-1.8-3.1-2.7-4.7c0.4-0.3,0.8-0.6,1.2-0.9c1.7-1,3.4-2,5.1-3c0.9-0.5,1.6-1.2,1.9-2.1
	c1.7-3.7,3.4-7.3,5.1-11C408.2,102,408.3,101.2,409.4,100.9z"/>
<path d="M432.4,278.5c0.6-1.9,1.1-3.5,1.6-5c1.2-0.6,2,0.1,3,0.3c0.9,0.2,1.8,0.5,2.7,0.8c0,0.5,0,1-0.1,1.5
	c-1.4,5-2.8,9.9-4.2,14.9c-0.1,0.4-0.3,0.9-0.5,1.3c-2,0-3.9-0.5-5.6-1.4c-0.1-1.8,1-3.5,1.1-5.5c-0.5-0.2-1-0.4-1.5-0.6l-11.8-3.4
	c-0.7-0.2-1.3-0.4-1.9-0.6c0.1-2.1,0.7-4.3,1.6-6.2c0.6-0.2,1.3-0.2,1.8,0.1l11.6,3.2C430.8,278.2,431.5,278.3,432.4,278.5z"/>
<path d="M74.8,390.3c1-1.4,2.1-2.8,3.4-4c1.2-1.4,2.4-2.8,3.7-4.1s2.3-2.6,3.6-4.1c-2.3-2.3-4.8-4.3-7.1-6.5
	c0.9-1.7,2.1-3.2,3.7-4.3c0.1,0,0.3,0,0.4,0.1l10.7,9.4l1.3,1.2c-0.2,0.3-0.3,0.6-0.6,0.9l-13.5,15c-0.2,0.2-0.4,0.4-0.6,0.5
	C77.9,393.4,76.2,392,74.8,390.3z"/>
<path d="M375,83.6c-1.2,1.5-2.5,2.8-3.9,4c-0.2-0.1-0.4-0.2-0.6-0.3c-3.6-3.6-7.2-7.2-10.8-10.8c-0.1-0.2-0.3-0.4-0.3-0.6
	c0.2-0.3,0.5-0.7,0.8-1l14.5-14.5c1.9,1.2,3.6,2.7,4.9,4.5c-0.2,0.8-0.9,1.2-1.5,1.7c-2.7,2.8-5.5,5.5-8.3,8.3c-0.5,0.5-1,1-1.5,1.6
	c0.3,0.4,0.6,0.8,0.9,1.2c1.5,1.5,3,3,4.5,4.5C374.1,82.6,374.5,83.1,375,83.6z"/>
<path d="M66.8,96.1c-1.3,1.9-2.7,3.6-4.3,5.3c-1.5-1-3-2.1-4.4-3.3c-1.5-1.1-2.9-2.3-4.3-3.4s-2.9-2.3-4.3-3.4S46.5,89,45,87.7
	c1.3-1.9,2.7-3.5,4.1-5.2c0.4,0.2,0.8,0.4,1.1,0.7l15.7,12.4C66.1,95.7,66.4,95.9,66.8,96.1z"/>
<path d="M61.2,377.1c-1.7-1.4-3.2-2.9-4.4-4.7c1.2-1.5,14.7-14,16.1-14.9c1.7,1.4,3.2,2.9,4.4,4.7C76.1,363.7,62.6,376.2,61.2,377.1
	z"/>
<path d="M95.7,67.3l-5,4.2c-0.4-0.3-0.7-0.6-1-0.9c-4.3-5.1-8.7-10.3-13-15.4c-0.1-0.2-0.2-0.4-0.4-0.6c0.6-0.9,1.5-1.7,2.4-2.3
	c0.8-0.7,1.6-1.3,2.5-2.1c0.3,0.2,0.6,0.5,0.8,0.7c4.4,5.2,8.7,10.4,13.1,15.6C95.4,66.7,95.4,66.9,95.7,67.3z"/>
<path d="M139.8,39.8c-1.8,1.3-3.9,2.2-6,2.8c-0.2-0.3-0.4-0.5-0.6-0.8c-3-6.3-5.9-12.5-8.8-18.7c1.8-1.4,3.8-2.4,6-3
	c0.2,0.2,0.4,0.5,0.6,0.8c2.9,6.1,5.7,12.1,8.6,18.2C139.6,39.3,139.7,39.6,139.8,39.8z"/>
<path d="M44.1,130.6c-0.9,2-1.9,4-3.1,5.9c-6.4-3.1-12.6-6.3-18.8-9.4c-0.3-0.2-0.6-0.4-0.9-0.7c0.8-2,1.8-3.9,2.9-5.7
	c0.3,0,0.6,0.1,0.9,0.2c6.1,3,12.1,6.1,18.2,9.1C43.5,130.2,43.8,130.4,44.1,130.6z"/>
<path d="M433,195.9h0.4c1.8,0.3,3.1,1.9,3,3.8c0.2,1.9-1.2,3.5-3,3.8c-0.9,0.1-1.7-0.2-2.3-0.8c-1.4-1.4-1.8-3.5-0.8-5.2
	C430.9,196.5,432,195.9,433,195.9z"/>
<path d="M108.8,41.2c1.1,0,2.2,0.6,2.7,1.7c0.6,1.1,0.4,2.4-0.4,3.4c-0.6,0.8-1.4,1.4-2.4,1.6c-1.6,0.6-3.4-0.3-4-2
	c-0.3-0.9-0.2-1.9,0.3-2.7C105.8,41.9,107.2,41.1,108.8,41.2z"/>
<path d="M11,216c-1.4,0.2-2.7-0.5-3.3-1.7c-0.7-1.4-0.6-3,0.3-4.2c0.9-1.4,2.8-1.8,4.2-0.9c0.5,0.3,0.9,0.8,1.1,1.3
	c0.6,1.3,0.6,2.8-0.2,4.1C12.8,215.4,12,216,11,216z"/>
<path class="st0" d="M405,325.3l0.3-0.1L405,325.3L405,325.3z"/>
</svg>
