<?xml version="1.0" encoding="utf-8"?>
<!-- Generator: Adobe Illustrator 23.0.5, SVG Export Plug-In . SVG Version: 6.00 Build 0)  -->
<svg version="1.1" id="Capa_1" xmlns="http://www.w3.org/2000/svg" xmlns:xlink="http://www.w3.org/1999/xlink" x="0px" y="0px"
	 viewBox="0 0 40.4 31" style="enable-background:new 0 0 40.4 31;" xml:space="preserve">
<style type="text/css">
	.st0{fill:#ABC3A2;}
	.st1{fill:url(#SVGID_1_);}
	.st2{fill:url(#SVGID_2_);}
	.st3{fill:#2DADB0;}
	.st4{fill:#FDA256;}
</style>
<title>wikiki_min</title>
<path class="st0" d="M31.8,23.3c-0.5-0.2-1-0.3-1.5-0.2c-2.6,0.5-5,2.6-7,4.3c-0.9,0.8-2,1.4-3.1,1.9c-0.2,0.1-0.2,0-0.1-0.2
	c0.1-0.2,0.4-0.4,0.6-0.5c2.1-2.2,3.8-3.9,5.1-5.1c1.6-1.5,3.6-2.7,5.8-2.7c2.3,0,4.8,2.7,2.6,4.6c-0.7,0.6-1.5,0.9-2.4,0.9
	c-0.4,0-0.4-0.1-0.1-0.3C32.5,25.4,32.9,23.9,31.8,23.3z"/>
<linearGradient id="SVGID_1_" gradientUnits="userSpaceOnUse" x1="4.7691" y1="895.9093" x2="38.5681" y2="912.296" gradientTransform="matrix(1 0 0 1 0 -886.18)">
	<stop  offset="0" style="stop-color:#2DADB0"/>
	<stop  offset="0.12" style="stop-color:#3EB0AE"/>
	<stop  offset="0.37" style="stop-color:#6AB8A8"/>
	<stop  offset="0.46" style="stop-color:#7EBCA5"/>
	<stop  offset="1" style="stop-color:#C5C897"/>
</linearGradient>
<path class="st1" d="M16.7,26.2c2.2-0.6,4.3-1.5,6.3-2.7l0.1-0.1c1.4-0.8,2.8-1.7,4.3-2.5c1-0.6,2.1-1.1,3.3-1.4
	c2.6-0.6,4.8,0.4,6.2,2.6c0.5,0.8,0.7,1.6,0.5,2.4c-0.2,1-0.8,1.8-1.7,2.1c-0.2,0.1-0.2,0.1,0,0.2c2.2,0.8,4.4-0.5,4.8-2.8
	c0.3-1.4,0-2.8-0.9-4.3c-2.1-3.3-6.2-4.1-9.7-3.2c-0.9,0.3-1.8,0.6-2.6,1c-0.8,0.4-1.7,0.8-2.5,1.2c-0.5,0.2-1.5,0.7-1.5,0.7
	c-1.9,0.5-3.9,0.5-5.9,0h0c-5.1-1.2-6.5-5.6-5.5-10.3c0.1-0.3,0-0.3-0.2-0.2c-3.2,2.4-3.9,5.3-2.3,8.8c0.2,0.4,0.1,0.4-0.1,0.1
	C6,13.8,6.3,8.3,9.8,4.7c1.5-1.6,3.5-2.5,5.9-2.8c0.5-0.1,0.5-0.1,0-0.2c-3.2-0.4-6.1,0.2-8.6,1.9C0.8,7.5-0.6,16.4,4.5,22
	c1,1.2,2.3,2.1,3.7,2.8C10.7,26.2,13.7,26.7,16.7,26.2L16.7,26.2z"/>
<linearGradient id="SVGID_2_" gradientUnits="userSpaceOnUse" x1="14.6359" y1="103.0075" x2="29.9093" y2="111.5796" gradientTransform="matrix(1 0 0 -1 0 116.0042)">
	<stop  offset="0" style="stop-color:#3CB0AE"/>
	<stop  offset="0.17" style="stop-color:#7EBCA5"/>
	<stop  offset="0.39" style="stop-color:#C5C897"/>
	<stop  offset="0.59" style="stop-color:#E9C88A"/>
	<stop  offset="0.76" style="stop-color:#FEC37B"/>
	<stop  offset="1" style="stop-color:#FDA256"/>
</linearGradient>
<path class="st2" d="M19.8,9.2c0.7-1.6,1.5-3.1,2.2-4.5c0.3-0.7,1.5-1.3,2-0.4c0.5,0.9,1,1.8,1.4,2.8c0.1,0.2,0.2,0.2,0.2,0l1.9-5.9
	c0.1-0.2,0.3-0.4,0.5-0.5L30.1,0c0.2-0.1,0.3,0,0.3,0.3C29.6,5,28.8,9.8,28,14.7c-0.1,0.9-1.3,1-2.1,1.1c-0.3,0-0.5-0.1-0.7-0.3
	L23,12.1c0-0.1-0.1-0.1-0.2,0l0,0c-1,1.5-2.1,2.9-3.1,4.3c-0.4,0.6-1.1,0.7-1.8,0.7c-0.3,0-0.6-0.2-0.6-0.5C16.5,12.4,15.8,8.3,15,4
	C15,3.8,15,3.6,15,3.3C15,3.2,15.1,3,15.3,3L18,2.8c0.3,0,0.5,0.2,0.5,0.4l1.1,5.9C19.6,9.3,19.7,9.3,19.8,9.2z"/>
<path class="st3" d="M21.2,25.5C21.2,25.4,21.2,25.4,21.2,25.5C21.2,25.5,21.2,25.5,21.2,25.5l0.1,0.1v0c-0.7,0.5-1,1.2-1.7,1.8
	c-2.7,2.3-5.8,3.8-9.3,3.7c-4.3-0.2-7.6-2.7-9.2-6.9c-0.6-1.6-1-3.3-1.1-5.1C0,19,0,19,0.1,19h0c0.1,0,0.1,0.1,0.1,0.1
	c0.3,0.8,0.6,1.6,1,2.4c2.4,4.2,5.9,6.5,10.7,6.8C15.1,28.5,18.4,27.2,21.2,25.5z"/>
<path class="st4" d="M30.7,13.4c0.8-0.7,1-1.7,1.1-2.7c0.1-0.6,0.5-0.8,1.1-0.7c0.2,0,0.3,0.1,0.5,0.2c0.5,0.3,0.7,0.8,0.4,1.4
	c-0.5,1-1.9,1.8-2.9,2.1C30.3,13.8,30.3,13.7,30.7,13.4z"/>
</svg>
